<svg xmlns="http://www.w3.org/2000/svg" width="48" height="48" fill="none"><path fill="#77B709" d="M33.457 15.629c0 .845-2.114 2.114-3.171 2.643V23.5h-2.114v-5.228c-1.692-.423-2.82-2.29-3.172-3.172V5.586C25.423 4.317 26.586 4 27.114 4h4.758c1.268 0 1.585 1.41 1.585 2.114z"/><path stroke="#0B6204" stroke-linecap="round" stroke-width=".9" d="M28.172 18.272h2.114m-2.114 0c-1.692-.423-2.82-2.29-3.172-3.172V5.586C25.423 4.317 26.586 4 27.114 4h4.758c1.268 0 1.585 1.41 1.585 2.114v9.515c0 .845-2.114 2.114-3.171 2.643m-2.114 0V23.5h2.114v-5.228M29.229 5.586V15.1M31.343 5.586V15.1M27.114 5.586V15.1"/><path fill="#E95906" d="M46 39.438c0 3.182-2.542 5.261-6 5.261s-6-2.08-6-5.261c0-3.183 2.803-5.239 6.26-5.239 3.459 0 5.74 2.056 5.74 5.239"/><path stroke="#E63109" d="M40.26 34.7c1.632 0 2.938.484 3.83 1.295.888.808 1.41 1.978 1.41 3.443 0 1.447-.574 2.624-1.53 3.445-.961.827-2.34 1.316-3.97 1.316s-3.009-.49-3.97-1.316c-.956-.821-1.53-1.998-1.53-3.445 0-2.81 2.472-4.739 5.76-4.739Z"/><path stroke="#135404" stroke-linecap="round" stroke-width=".8" d="M40 35.2c.667-.5 2.3-1.2 3.5 0m-3.5 0c.833.333 2.4 1.2 2 2m-2-2c-.833.166-2.5.7-2.5 1.5m2.5-1.5c-.333-.667-1.5-1.6-3.5 0m3.5 0c0-1 .4-2.8 2-2"/><path stroke="#F5F5F5" stroke-linecap="round" stroke-width=".7" d="M40 42.7c1.333 0 4-.6 4-3"/><path fill="#F5B108" d="m24 29.911 1.368-.684c1.62 1.214 3.089 1.007 4.021.263 0 .274.769.193 1.111.08.342.455.89 1.368.342 1.368.228.44.548 1.398 0 1.71-.684.228-1.368 1.026-1.71 1.369l-1.369.684c.228.342.547 1.026 0 1.026h-1.71c-.207 1.239.612 2.556 1.37 3.421-1.141.114-3.423.41-3.423.684v-9.92"/><path fill="#ED850A" d="M24 40.517c.114-.114.41-.274.684 0 .274.273.114 1.254 0 1.71l-.342.342H24z"/><path fill="#EF6407" d="M24 22.385c.102-.407.385-1.009.91-1.575a.36.36 0 0 1 .131-.136q-.068.067-.131.136c-.382.83 7.387 1.198 9.011.549l.684.827c-3.071 1.183-8.298.638-10.605.199"/><path fill="#E36302" d="M25.369 29.227c.342-1.369 3.42-3.422 4.79-.685-.685 1.369-2.6 2.327-4.79.684"/><path fill="#E33E02" d="M24 43.254h8.895c1.14 0 3.558-.616 4.105-3.08l-2.395-1.04q-.289.366-.684.699h-5.816a7 7 0 0 1-.683-.684c-1.14.114-3.422.41-3.422.684v.684c.114-.114.41-.274.684 0s.114 1.254 0 1.71l-.342.343H24z"/><path stroke="#DF5500" stroke-linecap="round" stroke-width=".9" d="M25.368 29.227c2.19 1.642 4.106.684 4.79-.684M24 31.622s2.737-.684 3.079-.342M24 32.99c.798-.456 2.737-1.094 4.105 0m0-1.71 2.053-.342"/><path fill="#72A906" d="M24 22.385c2.395.456 7.937 1.026 10.947-.342.913.57 2.258 1.847.342 2.394-2.964.342-9.373.821-11.289 0z"/><path fill="#F17303" d="M28.105 19.306c1.71-.342 5.406-.684 6.5.684.342.343.684.821-.684 1.369-1.624.65-9.393.282-9.011-.549a.36.36 0 0 1 .131-.135c.656-.65 1.696-1.027 3.064-1.37"/><path stroke="#E84601" stroke-linecap="round" stroke-width=".9" d="M24 22.385c.11-.44.431-1.107 1.041-1.71m0 0c.656-.65 1.696-1.027 3.064-1.37 1.71-.341 5.406-.683 6.5.685.342.343.684.821-.684 1.369-1.71.684-10.233.24-8.88-.684Z"/><path stroke="#EC6104" stroke-linecap="round" stroke-width=".9" d="M25.71 40.859h9.922m-9.922 1.368 8.553-.342"/><path stroke="#0B6204" stroke-linecap="round" stroke-width=".9" d="M37 40.174c-.547 2.463-2.965 3.08-4.105 3.08H24V29.91m0-5.474v-2.052c2.395.456 7.937 1.026 10.947-.342.913.57 2.258 1.847.342 2.394-2.964.342-9.373.821-11.289 0Zm0 0v5.474m0 0 1.368-.684c.343-1.369 3.422-3.421 4.79-.684m.684 2.394h2.737M30.5 29.57h3.421c1.368.342 2.395 1.71.342 3.079h-3.42c-.685.228-1.37 1.026-1.711 1.368l-1.369.684m-1.71 1.027h9.579c.114.798-.069 2.737-1.71 4.105h-5.817c-.798-.684-2.326-2.463-2.052-4.105Z"/><path fill="#6EAB06" d="M16.582 37.162c-.939-.67-2.413-1.205-4.022.805-.67 1.207-1.287 4.022 1.609 5.63.268.135 1.447.403 4.021.403 1.609-.536 4.826-3.217 1.609-6.837-.536-.403-1.93-.967-3.217 0"/><path stroke="#0B6204" stroke-linecap="round" stroke-width=".9" d="M16.582 37.162c-.939-.67-2.413-1.205-4.022.805-.67 1.207-1.287 4.022 1.609 5.63.268.135 1.447.403 4.021.403 1.609-.536 4.826-3.217 1.609-6.837-.536-.402-1.93-.965-3.217 0m-.477-.295c.268-.804 1.12-2.36 2.085-1.716"/><path stroke="#0B6204" stroke-linecap="round" stroke-width=".9" d="M15.777 37.968c-.268 0-.884.08-1.206.402m2.413-.402c.536.133 1.206.804 1.206 1.206"/><path fill="#EB6107" d="M5.53 25.688h.006c1.274-.001 2.293-.99 2.793-1.788V6.554C7.296 4.669 6.332 4 5.482 4c-1.237 0-2.234 1.413-2.86 2.555V23.9c1.033 1.319 2.03 1.787 2.908 1.788"/><path fill="#EB6107" d="M5.482 4c.85 0 1.814.669 2.847 2.554v3.153h13.146c3.068-2.536 1.278-4.861 0-5.707z"/><path stroke="#0B6204" stroke-linecap="round" stroke-width=".9" d="M4.908 25.688h.622m2.8-19.134V19.98m0-13.427v3.153h13.145c3.068-2.536 1.278-4.861 0-5.707H5.482m2.847 2.554C7.296 4.669 6.332 4 5.482 4m2.847 15.98h12.099c1.207.846 2.897 3.172 0 5.708H5.536m2.793-5.707v3.92c-.5.798-1.519 1.786-2.793 1.787m-.006 0h.006m-.006 0c-.877 0-1.875-.47-2.908-1.788V6.555C3.248 5.413 4.245 4 5.482 4m-.006 0h.006"/><path stroke="#C83D06" stroke-linecap="round" stroke-width=".9" d="M4.905 6.056h.57M3.765 8.909h1.712"/><path stroke="#0B6204" stroke-linecap="round" stroke-width=".9" d="M3.764 12.561h1.141m-1.141 3.732h1.141M3.764 19.98h1.141M5.476 26.259h2.283c2.092 6.278 4.68 18.606-1.713 17.693S2.241 31.776 4.334 26.259zm0 0c-.761 4.679-1.713 14.312.57 15.41"/><path stroke="#0B6204" stroke-linecap="round" stroke-width=".9" d="M6.617 26.259c.57 4.566 1.256 13.698-.57 13.698"/></svg>