<svg xmlns="http://www.w3.org/2000/svg" width="121" height="48" fill="none"><path fill="#EB6107" d="M3.547 26h.005c1.117-.001 2.01-.867 2.448-1.566V9.237C5.094 7.586 4.25 7 3.505 7 2.422 7 1.55 8.238 1 9.238v15.196c.905 1.155 1.779 1.565 2.547 1.566"/><path fill="#EB6107" d="M3.505 7C4.25 7 5.095 7.586 6 9.237V12h11.516c2.688-2.222 1.12-4.26 0-5z"/><path stroke="#0B6204" stroke-linecap="round" stroke-width=".9" d="M3.002 26h.545M6 9.237V21M6 9.237V12h11.516c2.688-2.222 1.12-4.26 0-5H3.506M6 9.237C5.094 7.586 4.25 7 3.505 7M6 21h10.599c1.057.74 2.538 2.778 0 5H3.552M6 21v3.434c-.438.7-1.331 1.565-2.448 1.566m-.005 0h.005m-.005 0C2.78 26 1.905 25.589 1 24.434V9.238C1.549 8.238 2.422 7 3.505 7M3.5 7h.005"/><path stroke="#C83D06" stroke-linecap="round" stroke-width=".9" d="M3 8.8h.5M2 11.3h1.5"/><path stroke="#0B6204" stroke-linecap="round" stroke-width=".9" d="M2 14.5h1m-1 3.27h1M2 21h1M3.5 26.5h2C7.333 32 9.6 42.8 4 42S.667 31.333 2.5 26.5zm0 0C2.833 30.6 2 39.038 4 40"/><path stroke="#0B6204" stroke-linecap="round" stroke-width=".9" d="M4.5 26.5c.5 4 1.1 12-.5 12"/><path fill="#77B709" d="M30 18c0 .8-2 2-3 2.5v8h-2v-8c-1.6-.4-2.667-2.167-3-3v-9c.4-1.2 1.5-1.5 2-1.5h4.5C29.7 7 30 8.333 30 9z"/><path stroke="#0B6204" stroke-linecap="round" stroke-width=".9" d="M25 20.5h2m-2 0c-1.6-.4-2.667-2.167-3-3v-9c.4-1.2 1.5-1.5 2-1.5h4.5C29.7 7 30 8.333 30 9v9c0 .8-2 2-3 2.5m-2 0v8h2v-8"/><path fill="#EC6301" stroke="#0B6204" stroke-linecap="round" stroke-width=".9" d="M28 30c-1.778-2.773-3.26-1.156-4 0v10.928c1.778 1.94 3.407.809 4 0z"/><path stroke="#0B6204" stroke-linecap="round" stroke-width=".9" d="M26 8.5v9M28 8.5v9M24 8.5v9"/><path fill="#F5B108" d="m45 22.5 2-1c2.366 1.774 4.513 1.472 5.876.385 0 .4 1.124.282 1.624.115.5.667 1.3 2 .5 2 .333.643.8 2.044 0 2.5-1 .333-2 1.5-2.5 2l-2 1c.333.5.8 1.5 0 1.5H48c-.302 1.81.895 3.735 2.002 5-1.667.167-5.002.6-5.002 1V22.5"/><path fill="#ED850A" d="M45 38c.167-.166.6-.4 1 0s.167 1.834 0 2.5l-.5.5H45z"/><path fill="#EF6407" d="M45 11.5c.149-.595.562-1.474 1.33-2.302A.53.53 0 0 1 46.522 9q-.1.099-.192.198c-.558 1.214 10.796 1.752 13.17.802l1 1.21c-4.49 1.729-12.129.932-15.5.29"/><path fill="#E36302" d="M47 21.499c.5-2 5-5 7-1-1 2-3.8 3.4-7 1"/><path fill="#E33E02" d="M45 42h13c1.667 0 5.2-.9 6-4.5l-3.5-1.52a7 7 0 0 1-1 1.02H51a10 10 0 0 1-.998-1c-1.667.167-5.002.6-5.002 1v1c.167-.166.6-.4 1 0s.167 1.834 0 2.5l-.5.5H45z"/><path stroke="#DF5500" stroke-linecap="round" stroke-width=".9" d="M47 21.5c3.2 2.4 6 1 7-1M45 25s4-1 4.5-.5M45 27c1.167-.667 4-1.6 6 0m0-2.5 3-.5"/><path fill="#72A906" d="M45 11.5c3.5.667 11.6 1.5 16-.5 1.333.833 3.3 2.7.5 3.5-4.333.5-13.7 1.2-16.5 0z"/><path fill="#F17303" d="M51 7c2.5-.5 7.9-1 9.5 1 .5.5 1 1.2-1 2-2.374.95-13.728.413-13.17-.801A.53.53 0 0 1 46.522 9C47.48 8.05 49 7.5 51 7"/><path stroke="#E84601" stroke-linecap="round" stroke-width=".9" d="M45 11.5c.16-.642.63-1.617 1.522-2.5m0 0C47.48 8.05 49 7.5 51 7c2.5-.5 7.9-1 9.5 1 .5.5 1 1.2-1 2-2.5 1-14.956.352-12.978-1Z"/><path stroke="#EC6104" stroke-linecap="round" stroke-width=".9" d="M47.5 38.5H62m-14.5 2L60 40"/><path stroke="#0B6204" stroke-linecap="round" stroke-width=".9" d="M64 37.5c-.8 3.6-4.333 4.5-6 4.5H45V22.5m0-8v-3c3.5.667 11.6 1.5 16-.5 1.333.833 3.3 2.7.5 3.5-4.333.5-13.7 1.2-16.5 0Zm0 0v8m0 0 2-1c.5-2 5-5 7-1m1 3.5h4m-4.5-2h5c2 .5 3.5 2.5.5 4.5h-5c-1 .333-2 1.5-2.5 2l-2 1M48 31h14c.167 1.166-.1 4-2.5 6H51c-1.167-1-3.4-3.6-3-6Z"/><path fill="#6EAB06" d="M36.5 33.499c-1.167-.834-3-1.499-5 1-.833 1.5-1.6 5.001 2 7.001.333.167 1.8.5 5 .5 2-.666 6-4 2-8.5-.667-.5-2.4-1.202-4-.001"/><path stroke="#0B6204" stroke-linecap="round" stroke-width=".9" d="M36.5 33.499c-1.167-.834-3-1.499-5 1-.833 1.5-1.6 5.001 2 7.001.333.167 1.8.5 5 .5 2-.666 6-4 2-8.5-.667-.5-2.4-1.2-4 0m-.592-.367c.333-1 1.392-2.933 2.592-2.133"/><path stroke="#0B6204" stroke-linecap="round" stroke-width=".9" d="M35.5 34.5c-.333 0-1.1.1-1.5.5m3-.5c.667.167 1.5 1 1.5 1.5"/><path fill="#F16614" fill-rule="evenodd" stroke="#0B6204" stroke-linecap="round" stroke-width=".9" d="M96 31V16.5c2-11 19.5-15 24 0v15.001c0 10-20 18-24-.5Zm6-13.5v12.999c3 10 12 5.5 12 0v-13c0-4.5-9.5-9.999-12 0Z" clip-rule="evenodd"/><path stroke="#F27604" stroke-linecap="round" stroke-width=".9" d="M98 20.5c-.334 5.167-.1 15.9 3.5 17.5m14-20v11"/><path stroke="#F7B616" stroke-linecap="round" stroke-width=".9" d="M100 21c-2 12.5 3.5 21 13 15.5M98.5 15l-.5 4.5m4-7.5c.833-1 3.2-2.9 6-2.5"/><path stroke="#fff" stroke-linecap="round" stroke-width=".9" d="M115 12c3.5 6 2.722 13.5 2 20s-6.5 7.5-9 8"/><path stroke="#0B6204" stroke-linecap="round" stroke-width=".9" d="M72 8.498C70 6.5 65.962 7.014 66 10.5L77 41c2.5 2 5.421.976 5.5-1.5z"/><path fill="#0B6204" d="M86.5 23.5c-.4-.4-1.5-.5-2-.5.167.466.3 1.713-.5 1.794.651.139 1.36.317 2 .53-.8-.316 0-1.348.5-1.824"/><path fill="#76AC09" d="m83 39.5 4.832-13.346c-.379-.253-1.243-.633-1.832-.83a19 19 0 0 0-2-.53 24 24 0 0 0-1.648-.294l-4.916 14.71c.608 3.09 3.064 3.58 5.564.29"/><path stroke="#0B6204" stroke-linecap="round" stroke-width=".9" d="m83 39.5 10.5-29c-.248-2.79-3.804-4.604-5.865-1.807L82.352 24.5m.648 15c-2.5 3.29-4.956 2.8-5.564-.29l4.916-14.71m.648 15 4.832-13.346c-.379-.253-1.243-.633-1.832-.83m-3.648-.824c.832.114 2.373.4 3.648.825m-3.648-.825c.414.057 1.003.156 1.648.294m0 0c.8-.081.667-1.328.5-1.794.5 0 1.6.1 2 .5-.5.476-1.3 1.508-.5 1.825m-2-.531c.651.139 1.36.317 2 .53M82.352 30c-.45 1.833-1.452 5.5-1.852 5.5"/><path stroke="#0B6204" stroke-linecap="round" stroke-width=".9" d="M84 30.5c-.167 1.5-.7 4.7-1.5 5.5m-3 1.5c.833-.333 2.4-.6 2 1M82.5 28h.5"/><path stroke="#0B6204" stroke-linecap="round" stroke-width=".7" d="M84.5 28H84M85.5 27c.5-.5 1 0 1 .5s-1.5.5-1-.5Z"/><path fill="#EF5F05" d="M72 25c-1 .667-2.8 2.6-2 5 .5 1.333 1.8 4.3 3 5.5.833.667 2.8 1.4 4-1 .167-1.167.4-3.5 0-3.5.333-.833.6-2.6-1-3 .333-1.167 0-3.4-4-3"/><path stroke="#B72C05" stroke-linecap="round" stroke-width=".9" d="m71 24 1.5-.5m-.5.5v1m0 0c-1 .667-2.8 2.6-2 5 .5 1.333 1.8 4.3 3 5.5.833.667 2.8 1.4 4-1 .167-1.167.4-3.5 0-3.5.333-.833.6-2.6-1-3 .333-1.167 0-3.4-4-3Z"/><path fill="#A22009" stroke="#A22009" stroke-linecap="round" stroke-width=".4" d="M71.5 29.5c.323-.624 1.501-.499 1.307.082-.306.92-1.668.616-1.307-.082Z"/><path fill="#0B6204" stroke="#0B6204" stroke-linecap="round" stroke-width=".4" d="M73.12 32.828c-.127-.692.88-1.314 1.083-.736.32.914-.942 1.508-1.084.736Z"/><path fill="#F5F5F5" stroke="#F5F5F5" stroke-linecap="round" stroke-width=".4" d="M75.36 30.723c-.68-.339 0-1.5.64-1.222.888.388.36 1.721-.64 1.222Z"/><path fill="#A6220D" stroke="#A6220D" stroke-linecap="round" stroke-width=".4" d="M75.315 30.697c-.617-.341-.296-.92.279-.622.796.412.63 1.125-.28.622Z"/><path fill="#F5F5F5" stroke="#F5F5F5" stroke-linecap="round" stroke-width=".4" d="M74.205 27.49c-.679-.338 0-1.5.64-1.221.889.387.36 1.721-.64 1.221Z"/><path fill="#A6220D" stroke="#A6220D" stroke-linecap="round" stroke-width=".4" d="M74.181 27.476c-.55-.305-.269-.812.243-.546.71.37.568.996-.243.546Z"/></svg>