<svg width="292" height="107" viewBox="0 0 292 107" fill="none" xmlns="http://www.w3.org/2000/svg">
<path d="M292 21.6179V107H0C0.998291 105.669 3.7935 101.308 6.98803 94.5177C10.9812 86.0294 22.4615 75.0446 28.9504 72.548C38.0492 69.0473 45.4222 69.3441 50.9128 72.548C56.4034 75.7519 91.4434 75.1444 99.8291 65.5577C110.311 53.5742 128.779 30.1066 143.754 30.1066C158.728 30.1066 157.73 35.599 173.703 30.1066C181.19 27.5321 184.284 20.0202 200.656 13.6294C221.121 5.64088 234.598 9.63903 250.571 1.64549C264.943 -5.54689 286.509 12.6303 292 21.6179Z" fill="#F3F0D1"/>
</svg>
