<svg width="512" height="310" viewBox="0 0 512 310" fill="none" xmlns="http://www.w3.org/2000/svg">
<g clip-path="url(#clip0_242_76)">
<path d="M494.633 233.02C497.141 220.124 487.475 219.995 482.329 221.542C482.236 224.193 456.832 263.617 443.462 284.47C426.293 291.307 397.411 270.608 385.116 259.403L399.269 205.954L401.106 199.732C401.971 194.551 403.817 188.603 402.873 185.078C401.356 179.219 398.044 170.691 397.505 167.015C432.685 168.092 469.274 188.469 483.171 198.523C492.268 205.103 490.489 208.258 488.462 209.013C500.023 210.91 506.507 220.291 507.017 223.147C510.411 226.314 496.505 255.397 488.931 269.755C478.798 280.616 478.619 272.302 479.795 266.788C481.443 259.068 491.498 249.139 494.633 233.02Z" fill="#EFDCC9"/>
<path d="M439.859 227.944C423.837 211.095 409.123 205.886 403.768 205.388C399.877 206.837 393.843 242.68 391.313 260.419C396.881 269.422 420.672 278.283 431.871 281.589C439.088 281.338 442.946 277.372 443.973 275.421C446.868 273.678 458.37 252.616 463.759 242.303C465.659 240.266 460.308 237.496 457.395 236.366C450.178 236.617 442.697 230.856 439.859 227.944Z" fill="#EBA77C"/>
<path d="M488.462 209.013C500.023 210.91 506.507 220.291 507.017 223.147C510.411 226.314 496.505 255.397 488.931 269.755C478.798 280.616 478.619 272.302 479.795 266.788C481.443 259.068 491.498 249.139 494.633 233.02C497.141 220.124 487.475 219.995 482.329 221.542C482.236 224.193 456.832 263.617 443.462 284.47C426.293 291.307 397.411 270.608 385.116 259.403L399.269 205.954L401.106 199.732C401.971 194.551 403.817 188.603 402.873 185.078C401.356 179.219 398.044 170.691 397.505 167.015M488.462 209.013C490.489 208.258 492.268 205.103 483.171 198.523C469.274 188.469 432.685 168.092 397.505 167.015M488.462 209.013C473.032 209.221 454.676 201.566 447.426 197.712C440.797 195.972 411.384 176.523 397.505 167.015M445.451 211.738L457.074 215.44M444.463 218.752L452.806 222.567M439.712 223.844L447.265 228.507M432.364 236.825L444.016 241.346M438.301 230.461L445.428 234.73M432.621 244.205L438.871 246.862M429.993 251.275L439.185 255.882M427.76 257.921L434.435 260.974M420.889 261.034L431.75 266.404M397.955 262.652C408.942 265.23 431.982 271.857 436.249 277.742M409.528 182.197C408.19 183.065 405.887 186.101 407.381 191.304" stroke="#664F3D" stroke-linecap="round"/>
<path d="M436.482 147.315C433.46 134.531 424.597 138.391 420.544 141.919C421.55 144.374 414.625 190.758 411.023 215.266C398.19 228.563 363.347 221.585 347.53 216.434L338.429 161.897L337.542 155.47C336.199 150.393 335.433 144.212 333.122 141.387C329.328 136.672 322.799 130.264 320.795 127.135C353.3 113.637 395.033 117.15 411.837 120.593C422.836 122.846 422.513 126.454 420.977 127.976C432.294 124.947 442.065 130.827 443.705 133.221C448.101 134.71 447.399 166.939 446.405 183.142C441.641 197.211 438.055 189.708 436.858 184.197C435.182 176.483 440.26 163.296 436.482 147.315Z" fill="#FCFAF6"/>
<path d="M384.464 165.244C362.927 156.482 347.373 157.791 342.288 159.541C339.338 162.464 348.591 197.612 353.587 214.821C362.367 220.734 387.697 219.019 399.264 217.422C405.738 214.223 407.622 209.021 407.755 206.82C409.676 204.04 411.489 180.111 412.156 168.494C413.049 165.856 407.032 165.534 403.912 165.703C397.438 168.902 388.249 166.73 384.464 165.244Z" fill="#D3D0B6"/>
<path d="M420.977 127.976C432.294 124.947 442.065 130.827 443.705 133.221C448.101 134.71 447.399 166.939 446.405 183.142C441.641 197.211 438.055 189.708 436.858 184.197C435.182 176.483 440.26 163.296 436.482 147.315C433.46 134.531 424.597 138.391 420.544 141.919C421.55 144.374 414.625 190.758 411.023 215.266C398.19 228.563 363.347 221.585 347.53 216.434L338.429 161.897L337.542 155.47C336.199 150.393 335.433 144.212 333.122 141.387C329.328 136.672 322.799 130.264 320.795 127.135M420.977 127.976C422.513 126.454 422.836 122.846 411.837 120.593C395.033 117.15 353.3 113.637 320.795 127.135M420.977 127.976C407 134.516 387.12 135.094 378.927 134.565C372.169 135.708 337.356 130.088 320.795 127.135M382.899 148.162L395.016 146.751M384.885 154.96L394.06 155.003M382.652 161.556L391.455 162.697M381.298 176.411L393.778 175.736M384.089 168.167L392.341 169.125M384.569 183.032L391.359 182.88M385.084 190.557L395.358 190.972M385.785 197.532L393.125 197.567M380.804 203.197L392.913 203.621M360.569 214.11C371.643 211.938 395.369 208.496 401.68 212.103M338.001 136.023C337.139 137.365 336.289 141.079 339.793 145.206" stroke="#664F3D" stroke-linecap="round"/>
<path d="M268.177 219.538C271.16 217.098 271.68 211.968 271.567 209.709C272.109 208.895 270.211 207.11 269.194 206.319C274.888 209.03 273.6 206.319 272.244 204.624C277.126 208.691 276.312 205.189 275.295 202.929C279.363 206.183 279.024 203.155 278.346 201.234C279.16 202.59 282.301 204.737 283.769 205.641C293.531 204.828 300.039 205.98 302.073 206.658C321.869 219.945 312.355 235.695 305.124 241.909C303.226 241.909 305.011 244.62 306.141 245.976C303.158 244.349 302.864 247.558 303.09 249.366C300.107 246.383 300.039 249.253 300.378 251.06C298.924 249.282 298.119 249.423 297.707 250.162C297.697 250.683 297.582 251.314 297.328 252.077C297.328 251.438 297.427 250.663 297.707 250.162C297.749 247.907 295.809 247.734 294.616 248.01C286.481 252.891 280.38 251.625 278.346 250.382C259.364 242.248 263.658 226.43 268.177 219.538Z" fill="#CAAF9E"/>
<path d="M271.916 216.154C268.187 226.322 266.628 246.93 290.22 248.015M276.322 215.476C276.774 222.707 280.39 238.389 291.237 243.27M280.729 212.086C287.847 217.736 301.473 231.882 299.033 243.27M286.491 210.053C294.513 209.714 309.405 215.137 304.795 239.541M270.221 211.07C270.334 213.33 269.814 218.459 266.831 220.899C262.312 227.791 258.018 243.609 277 251.744C279.034 252.987 285.135 254.252 293.27 249.371C294.739 249.032 297.338 249.371 295.982 253.439C295.982 251.857 296.592 249.439 299.033 252.422C298.694 250.614 298.762 247.744 301.744 250.727C301.518 248.919 301.812 245.71 304.795 247.337C303.665 245.982 301.88 243.27 303.778 243.27C311.009 237.056 320.523 221.306 300.728 208.019C298.694 207.341 292.185 206.189 282.424 207.002C280.955 206.098 277.814 203.951 277 202.596C277.678 204.516 278.017 207.544 273.949 204.29C274.966 206.55 275.78 210.053 270.899 205.985C272.255 207.68 273.543 210.392 267.848 207.68C268.865 208.471 270.764 210.257 270.221 211.07Z" stroke="#664F3D" stroke-linecap="round"/>
<path d="M345.734 270.721C347.203 270.043 350.954 269.501 354.208 272.755C353.756 270.947 353.395 267.128 355.564 266.314C355.564 266.314 356.952 270.18 356.663 272.898C357.034 272.086 358.248 270.748 358.953 270.043C358.731 270.934 357.96 272.834 356.64 273.408C358.813 272.509 363.443 271.424 365.055 274.111C364.241 273.798 362.81 273.478 361.326 273.623L364.038 275.466C373.258 281.703 370.591 290.945 368.105 294.786C354.818 306.717 343.587 300.21 339.633 295.464C329.149 282.883 341.102 272.791 347.768 271.792L345.734 270.721Z" fill="#E18771"/>
<path d="M345.66 271.403C347.129 270.725 350.88 270.183 354.134 273.437C353.682 271.629 353.321 267.81 355.49 266.996C355.49 266.996 356.878 270.861 356.589 273.579C356.96 272.768 358.174 271.43 358.88 270.725C358.657 271.615 357.886 273.515 356.566 274.09C358.739 273.19 363.369 272.105 364.981 274.792C364.167 274.479 362.736 274.159 361.252 274.305C360.058 274.423 358.83 274.842 357.863 275.809C358.993 277.052 360.913 280.08 359.558 282.249C358.654 280.328 356.575 276.69 355.49 277.504C354.247 278.182 351.151 279.537 348.711 279.537C348.372 279.424 348.575 278.317 352.1 274.792L347.694 272.473L345.66 271.403Z" fill="#C8C8A9"/>
<path d="M355.891 273.433C358.038 272.529 362.739 271.399 364.366 274.111C363.552 273.798 362.12 273.478 360.637 273.623M355.891 273.433C357.247 272.89 358.038 270.947 358.264 270.043C357.36 270.947 355.62 272.89 355.891 273.433ZM355.891 273.433C356.456 270.721 354.875 266.314 354.875 266.314C352.705 267.128 353.067 270.947 353.519 272.755C350.265 269.501 346.514 270.043 345.045 270.721L347.078 271.792M347.078 271.792L351.485 274.111C347.96 277.636 347.756 278.743 348.095 278.856C350.536 278.856 353.632 277.5 354.875 276.822C355.959 276.009 358.038 279.647 358.942 281.567C360.298 279.398 358.377 276.37 357.247 275.127C358.215 274.16 359.443 273.741 360.637 273.623M347.078 271.792C340.412 272.791 328.459 282.883 338.943 295.464C342.898 300.21 354.129 306.717 367.416 294.786C369.902 290.945 372.568 281.703 363.348 275.466L360.637 273.623M340.567 278.856C338.985 279.986 337.177 283.94 338.943 290.719" stroke="#664F3D" stroke-linecap="round"/>
<path d="M220.94 7.99058C223.326 7.77348 237.176 -0.628622 236.927 15.3899C236.743 27.2687 215.301 70.2598 202.259 94.7246C201.231 96.6525 200.255 98.4654 199.346 100.139C196.215 103.146 180.203 99.9685 181.825 90.8369C182.492 89.3027 183.198 87.6833 183.937 85.9929C196.509 57.2356 217.565 8.29772 220.94 7.99058Z" fill="#EAAA79"/>
<path d="M185.324 281.913C148.567 302.943 103.945 297.801 86.2291 292.6L86.7802 298.677C85.6425 308.65 168.469 313.731 186.028 289.676L185.324 281.913Z" fill="#E1C8AF"/>
<path d="M43.3776 266.882C25.1643 252.198 12.0559 214.149 7.77833 196.96C22.3354 246.635 228.792 238.159 239.372 175.958C237.13 211.03 225.826 236.852 220.454 245.379C209.132 264.648 192.571 278.198 185.706 282.564C148.949 303.595 104.328 298.452 86.6116 293.252C65.499 288.632 48.992 273.747 43.3776 266.882Z" fill="#EFDBC5"/>
<path d="M6.94219 187.714C12.2019 133.123 225.693 107.977 239.533 166.622C240.143 169.208 239.697 171.826 239.275 174.306L239.242 174.498C237.917 182.289 233.518 189.237 226.809 195.334L226.656 193.655C222.758 171.682 184.478 168.891 165.825 170.242C162.447 166.921 111.197 170.542 101.549 173.008C55.6165 177.173 36.6351 202.718 32.8859 214.97L33.0854 217.17C19.6529 211.928 10.3486 204.715 7.6482 195.499C6.92938 193.046 6.67848 190.452 6.94219 187.714Z" fill="#E3C9B0"/>
<path d="M100.973 174.184C55.0413 178.349 36.0599 203.895 32.3107 216.146L31.778 218.057C81.3644 237.894 189.132 230.222 226.233 196.51L226.081 194.831C222.182 172.858 183.902 170.067 165.25 171.418C154.794 168.466 118.042 172.032 100.973 174.184Z" fill="#F8EEDD"/>
<path d="M228.625 206.537C228.749 201.898 227.286 204.277 226.539 206.046C226.735 208.206 220.192 224.886 216.406 233.171C215.84 235.945 215.3 235.994 216.712 236.547C219.658 235.259 228.471 212.337 228.625 206.537Z" fill="#FDFCF9"/>
<path d="M209.712 249.434C212.4 245.292 209.406 246.058 207.564 248.267C205.108 251.213 194.334 263.761 192.124 265.663C188.651 268.652 192.408 268.798 194.303 267.167C201.374 261.081 207.522 252.809 209.712 249.434Z" fill="#FDFCF9"/>
<path d="M180.307 274.222C178.711 275.388 175.608 276.595 174.138 277.505C172.205 278.701 174.414 280.543 177.053 279.623C177.863 279.549 181.483 277.179 183.191 276.003C185.353 272.812 181.265 273.523 180.307 274.222Z" fill="#FDFCF9"/>
<path d="M172.747 200.015C176.032 191.209 173.836 185.751 172.692 180.643C172.22 179.733 171.717 178.864 171.186 178.035C169.259 175.022 166.967 172.531 164.455 170.477C163.798 169.94 163.126 169.432 162.442 168.953C158.002 165.846 153.04 163.934 148.271 162.808C144.022 161.805 139.926 161.425 136.487 161.378C134.59 161.352 132.892 161.427 131.48 161.555C128.976 161.783 126.624 162.091 124.415 162.472C112.76 164.484 105.099 168.518 100.179 173.243C93.2107 179.934 91.737 188.014 92.1916 193.707C93.4059 208.912 116.165 212.861 129.934 212.066C146.186 211.128 165.319 204.433 172.747 200.015Z" fill="#FBBD6A"/>
<path d="M104.549 182.205C100.008 177.172 122.779 162.555 125.696 171.439C127.106 175.735 106.819 184.722 104.549 182.205Z" fill="#FBF7EA"/>
<path d="M7.70478 196.157C6.98596 193.704 6.73506 191.109 6.99877 188.372C12.2585 133.781 225.75 108.634 239.59 167.28C240.216 169.932 239.73 172.619 239.299 175.155M7.70478 196.157C11.9823 213.346 25.0907 251.395 43.304 266.079C48.9185 272.944 65.4255 287.829 86.538 292.449M7.70478 196.157C22.2618 245.832 228.719 237.356 239.299 175.155M86.538 292.449C104.254 297.649 148.876 302.792 185.633 281.761M86.538 292.449L87.0891 298.525C85.9514 308.498 168.778 313.58 186.337 289.525L185.633 281.761M185.633 281.761C192.498 277.395 209.058 263.845 220.38 244.576C225.752 236.049 237.057 210.227 239.299 175.155M174.173 200.438C177.459 191.631 175.262 186.173 174.118 181.066C173.646 180.156 173.143 179.287 172.613 178.457M174.173 200.438C166.746 204.855 147.612 211.55 131.36 212.488C117.591 213.283 94.8322 209.335 93.6179 194.129C93.1633 188.436 94.637 180.357 101.605 173.665M174.173 200.438C187.614 202.282 191.775 120.563 191.561 118.2C191.389 116.31 193.608 105.75 194.786 101.219M78.7016 202.289C76.2004 207.234 78.4241 217.993 107.33 221.474M83.5229 187.898C67.0723 195.402 42.5914 213.187 76.2724 224.291M84.778 201.738C85.3415 197.943 87.8432 190.501 93.3424 191.091M146.642 219.611L152.718 219.06M157.782 218.601C167.92 215.299 188.337 207.254 188.903 201.484M185.224 187.184L191.299 194.12M191.577 182.183C199.771 182.461 214.353 187.877 207.131 207.319M197.804 198.295C197.813 202.151 195.769 210.391 187.52 212.501M232.488 167.924C232.88 174.127 232.715 187.71 228.923 192.41M32.9425 215.628C36.6917 203.376 55.673 177.831 101.605 173.665M101.605 173.665C106.526 168.94 114.186 164.907 125.842 162.895M165.882 170.9C184.534 169.548 222.814 172.339 226.713 194.312M165.882 170.9C165.225 170.362 164.553 169.855 163.868 169.376M165.882 170.9C168.393 172.954 170.685 175.445 172.613 178.457M182.783 95.5136L174.133 106.167C155.569 124.144 119.921 160.658 125.842 162.895M125.842 162.895C128.05 162.514 130.402 162.205 132.906 161.978C134.319 161.85 136.016 161.774 137.913 161.8M185.135 98.0231L177.416 108.593C162.399 126.256 134.015 161.577 137.913 161.8M137.913 161.8C141.352 161.847 145.448 162.227 149.697 163.23M187.049 99.2109C174.191 121.818 147.184 162.548 149.697 163.23M149.697 163.23C154.466 164.357 159.428 166.268 163.868 169.376M189.243 100.149C181.536 124.003 166.179 170.831 163.868 169.376M191.691 100.831C190.623 106.841 189.174 112.947 187.694 120.593C182.425 147.811 175.321 181.827 172.613 178.457M184.043 85.9815C183.304 87.6719 182.598 89.2913 181.931 90.8255C180.308 99.9571 196.321 103.135 199.452 100.128C200.361 98.454 201.336 96.6412 202.364 94.7132M184.043 85.9815C196.614 57.2242 217.67 8.28632 221.046 7.97918C223.432 7.76208 237.282 -0.640023 237.033 15.3785C236.848 27.2573 215.407 70.2484 202.364 94.7132M184.043 85.9815C186.783 89.2956 194.284 95.6817 202.364 94.7132M105.466 182.164C100.925 177.13 123.696 162.514 126.613 171.397C128.024 175.694 107.737 184.681 105.466 182.164ZM226.787 206.668C227.534 204.898 228.998 202.519 228.874 207.159C228.719 212.959 219.907 235.88 216.96 237.168C215.549 236.616 216.089 236.567 216.654 233.793C220.441 225.508 226.983 208.828 226.787 206.668ZM207.812 248.889C209.654 246.68 212.648 245.913 209.96 250.055C207.771 253.43 201.623 261.702 194.551 267.789C192.657 269.419 188.9 269.274 192.372 266.285C194.582 264.383 205.357 251.834 207.812 248.889ZM174.387 278.126C175.856 277.217 178.96 276.01 180.556 274.844C181.513 274.145 185.601 273.433 183.44 276.624C181.731 277.8 178.112 280.171 177.301 280.244C174.662 281.164 172.453 279.322 174.387 278.126Z" stroke="#664F3D" stroke-width="2" stroke-linecap="round"/>
<path d="M267.146 132.244C271.996 133.721 274.603 129.306 274.264 127.498C274.264 126.571 271.891 123.182 268.84 124.109C262.075 126.165 264.095 131.314 267.146 132.244Z" fill="#BEB699"/>
<path d="M274.264 148.174C277.314 144.873 279.009 146.931 279.687 148.174C280.772 151.428 279.687 152.33 277.314 152.33C274.941 152.33 272.908 150.297 274.264 148.174Z" fill="#BEB699"/>
<path d="M290.195 133.599C293.245 130.638 295.844 133.599 295.957 134.955C295.957 137.938 293.471 138.232 292.228 138.006C289.246 136.921 288.798 134.955 290.195 133.599Z" fill="#BEB699"/>
<path d="M280.704 118.347C281.382 115.046 286.127 116.653 286.127 119.363C286.127 122.075 284.093 122.301 283.076 122.075C280.704 121.548 280.478 119.815 280.704 118.347Z" fill="#BEB699"/>
<path d="M274.934 126.822C275.273 128.63 272.666 133.045 267.816 131.568C264.764 130.638 262.46 123.975 269.51 123.433M280.357 147.498C279.679 146.255 277.984 144.198 274.934 147.498C273.577 149.621 275.611 151.655 277.984 151.655C280.357 151.655 281.442 150.752 280.357 147.498ZM296.627 134.279C296.514 132.923 293.915 129.962 290.865 132.923C289.468 134.279 289.915 136.245 292.898 137.33C294.141 137.556 296.627 137.262 296.627 134.279ZM286.797 118.688C286.797 115.977 282.052 114.371 281.374 117.671C281.148 119.14 281.374 120.872 283.746 121.399C284.763 121.625 286.797 121.399 286.797 118.688Z" stroke="#664F3D" stroke-linecap="round"/>
</g>
<defs>
<clipPath id="clip0_242_76">
<rect width="512" height="310" fill="white"/>
</clipPath>
</defs>
</svg>
