<svg width="511" height="251" viewBox="0 0 511 251" fill="none" xmlns="http://www.w3.org/2000/svg">
<path d="M510.245 138.296L510.248 3.18847C484.394 -5.17159 424.003 5.14523 406.516 8.68821C357.488 18.6232 330.741 63.6076 287.202 76.5599C243.663 89.5121 227.399 85.2923 209.536 90.8683C200.498 93.6895 175.178 113.691 162.07 121.87C138.701 131.22 137.053 126.842 112.152 129.159C87.2511 131.476 75.7679 142.715 56.4224 148.508C40.946 153.141 12.3607 139.444 0.00263592 132.016L0.000263761 246.164C22.8979 253.636 84.2251 250.183 103.492 246.161C130.53 243.268 163.427 227.957 176.496 220.663C196.566 209.461 246.531 181.749 264.324 179.151C305.604 173.123 326.438 186.241 355.902 173.693C374.046 163.13 382.028 151.384 386.869 143.781C399.598 123.79 484.596 129.731 510.245 138.296Z" fill="#EFE2D8"/>
</svg>
