<svg xmlns="http://www.w3.org/2000/svg" width="290" height="136" fill="none"><path fill="#F4EFD1" d="M24.24 72.946c-8.33 1.74-15.178 6.88-19.824 16.85-13.635 29.265 7.535 42.668 19.824 45.711 16.092 0 18.794-7.566 60.211-8.316 27.606-.5 38.906 10.784 69.994 8.504 17.886-1.311 28.969-11.195 46.329-14.45 13.02-2.44 36.81 7.583 50.695 5.946 25.44-2.999 38.482-17.093 38.482-20.471V53.556c.397-3.331-1.72-9.825-2.311-13.128-.673-3.772-2.443-7.11-4.347-10.187-10.451-16.887-23.799-25.557-40.67-29.028-29.92-6.156-58.755 12.7-88.178 21.074-12.726 3.622-26.18 5.466-37.309 13.845-11.56 8.703-25.719 29.555-37.898 36.871-18.49 11.108-34.68-4.302-54.998-.057"/></svg>