<svg width="707" height="658" viewBox="0 0 707 658" fill="none" xmlns="http://www.w3.org/2000/svg">
<path d="M191.216 31.929C186.08 33.3837 180.61 35.2748 174.888 37.5256C152.913 46.1705 127.245 60.1225 102.735 75.0461C99.9139 76.7459 97.1381 84.188 94.8034 92.8689C115.455 119.535 106.239 119.329 99.0501 115.892C98.2191 147.275 92.1022 140.747 89.1475 133.56C84.7406 143.313 76.323 156.117 77.9089 129.304C71.9264 130.966 63.7945 130.385 79.1275 114.774C70.6561 116.207 61.9313 113.831 94.8034 92.8689C97.1381 84.188 99.9139 76.7459 102.735 75.0461C87.5547 84.2892 72.8178 93.9054 59.6766 102.864C58.5924 106.384 56.6599 111.893 53.5586 120.085C41.3596 152.302 38.2979 139.649 38.2919 129.295C25.4455 158.697 21.8148 150.183 21.6053 142.252C9.62095 151.278 -9.77936 162.921 8.49359 137.286C0.874408 137.614 -7.22426 134.119 21.3343 117.52C1.63897 118.629 16.7058 98.6339 55.4051 105.792C58.7368 99.3334 62.8569 92.5383 59.6766 102.864C72.8178 93.9054 87.5547 84.2892 102.735 75.0461C101.912 73.6232 93.197 70.6359 83.0094 67.5772C43.3497 90.7268 48.1238 80.5848 55.4683 72.6199C34.1298 74.8209 39.7941 68.8265 45.2935 65.555C33.8819 62.6989 18.7176 56.5564 49.3532 54.8335C43.7278 48.9513 39.2429 40.811 66.3069 55.3076C66.2821 46.7688 69.588 37.2685 83.0094 67.5772C93.197 70.6359 101.912 73.6232 102.735 75.0461C127.245 60.1225 152.913 46.1705 174.888 37.5256C171.144 34.9142 162.707 31.8663 153.354 29.0386C112.283 55.1972 113.028 42.7931 118.535 33.3211C87.6129 35.7963 98.0923 27.9212 107.197 23.6742C94.7099 18.9459 78.0078 10.2657 111.098 13.3719C103.658 6.62814 98.1411 -3.31329 135.603 10.8716C134.809 0.354503 137.248 -10.736 153.354 29.0386C162.707 31.8663 171.144 34.9142 174.888 37.5256C180.61 35.2748 186.08 33.3837 191.216 31.929C180.445 36.5533 171.082 51.0653 164.269 65.5705C177.728 105.742 168.794 101.927 162.644 94.9976C156.082 128.492 152.145 118.149 150.996 108.791C142.48 120.915 128.308 137.037 139.758 104.536C130.836 110.081 118.616 114.306 141.103 86.8415C131.23 84.8483 122.04 77.803 164.269 65.5705C171.082 51.0653 180.445 36.5533 191.216 31.929Z" fill="#BCC1A1"/>
<path d="M27.9885 125.394C35.5309 119.765 44.8842 113.039 55.4051 105.792M55.4051 105.792C69.5855 96.0226 85.8871 85.305 102.735 75.0461M55.4051 105.792C16.7058 98.6339 1.63897 118.629 21.3343 117.52C-7.22426 134.119 0.874408 137.614 8.49359 137.286C-9.77936 162.921 9.62095 151.278 21.6053 142.252C21.8148 150.183 25.4455 158.697 38.2919 129.295C38.2979 139.649 41.3596 152.302 53.5586 120.085C65.7576 87.8666 59.8725 97.1324 55.4051 105.792ZM245.615 25.7565C251.362 24.7199 251.458 23.8997 205.87 28.9114C201.401 29.4028 196.485 30.4362 191.216 31.929M191.216 31.929C186.08 33.3837 180.61 35.2748 174.888 37.5256M191.216 31.929C180.445 36.5533 171.082 51.0653 164.269 65.5705M123.144 21.1458C130.581 22.8151 142.576 25.7807 153.354 29.0386M153.354 29.0386C162.707 31.8663 171.144 34.9142 174.888 37.5256M153.354 29.0386C137.248 -10.736 134.809 0.354503 135.603 10.8716C98.1411 -3.31329 103.658 6.62814 111.098 13.3719C78.0078 10.2657 94.7099 18.9459 107.197 23.6742C98.0923 27.9212 87.6129 35.7963 118.535 33.3212C113.028 42.7931 112.283 55.1972 153.354 29.0386ZM174.888 37.5256C152.913 46.1705 127.245 60.1225 102.735 75.0461M102.735 75.0461C101.912 73.6232 93.197 70.6359 83.0094 67.5772M102.735 75.0461C99.9139 76.7459 97.1381 84.188 94.8034 92.8689M154.32 91.8459C156.247 85.1056 159.68 75.3396 164.269 65.5705M164.269 65.5705C122.04 77.803 131.23 84.8483 141.103 86.8415C118.616 114.306 130.836 110.081 139.758 104.536C128.308 137.037 142.48 120.915 150.996 108.791C152.145 118.149 156.082 128.492 162.644 94.9976C168.794 101.927 177.728 105.742 164.269 65.5705ZM56.9128 60.3171C63.7867 62.0985 73.9769 64.8658 83.0094 67.5772M83.0094 67.5772C69.588 37.2685 66.2821 46.7688 66.3069 55.3076C39.2429 40.811 43.7278 48.9513 49.3532 54.8335C18.7176 56.5564 33.8819 62.6989 45.2935 65.555C39.7941 68.8265 34.1298 74.8209 55.4683 72.6199C48.1238 80.5848 43.3497 90.7268 83.0094 67.5772ZM94.8034 92.8689C92.4027 101.795 90.468 112.03 89.4283 118.674M94.8034 92.8689C61.9313 113.831 70.6561 116.207 79.1275 114.774C63.7945 130.385 71.9264 130.966 77.9089 129.304C76.323 156.117 84.7406 143.313 89.1475 133.56C92.1022 140.747 98.2191 147.275 99.0501 115.892C106.239 119.329 115.455 119.535 94.8034 92.8689Z" stroke="#664F3D" stroke-linecap="round"/>
<path d="M204.95 124.819C207.189 123.786 212.906 122.959 217.866 127.919C217.178 125.163 216.627 119.342 219.933 118.102C219.933 118.102 222.048 123.994 221.609 128.136C222.174 126.899 224.025 124.861 225.1 123.785C224.761 125.143 223.586 128.039 221.574 128.914C224.886 127.543 231.942 125.89 234.4 129.985C233.16 129.508 230.978 129.021 228.716 129.243L232.85 132.051C246.903 141.558 242.839 155.646 239.05 161.501C218.796 179.688 201.678 169.768 195.65 162.535C179.669 143.357 197.889 127.973 208.05 126.451L204.95 124.819Z" fill="#E18771"/>
<path d="M204.842 125.854C207.08 124.821 212.798 123.994 217.758 128.954C217.069 126.198 216.518 120.377 219.825 119.137C219.825 119.137 221.939 125.029 221.5 129.171C222.065 127.934 223.916 125.896 224.991 124.82C224.652 126.178 223.477 129.074 221.465 129.949C224.777 128.578 231.833 126.925 234.292 131.02C233.051 130.544 230.869 130.056 228.607 130.278C226.788 130.457 224.915 131.095 223.442 132.57C225.163 134.465 228.092 139.08 226.025 142.387C224.647 139.459 221.478 133.913 219.825 135.153C217.93 136.187 213.212 138.253 209.492 138.253C208.975 138.082 209.285 136.393 214.658 131.02L207.942 127.486L204.842 125.854Z" fill="#C8C8A9"/>
<path d="M220.45 128.951C223.722 127.574 230.886 125.852 233.366 129.985C232.126 129.508 229.945 129.021 227.683 129.243M220.45 128.951C222.518 128.125 223.722 125.163 224.066 123.785C222.689 125.163 220.038 128.125 220.45 128.951ZM220.45 128.951C221.312 124.818 218.9 118.102 218.9 118.102C215.594 119.342 216.145 125.163 216.833 127.919C211.873 122.959 206.156 123.786 203.917 124.819L207.017 126.451M227.683 129.243C225.863 129.422 223.991 130.06 222.516 131.535C224.239 133.43 227.166 138.045 225.1 141.351C223.722 138.424 220.553 132.878 218.9 134.118C217.006 135.151 212.287 137.218 208.567 137.218C208.05 137.047 208.36 135.358 213.733 129.985L207.017 126.451M227.683 129.243L231.816 132.051C245.87 141.558 241.806 155.646 238.016 161.501C217.763 179.688 200.645 169.768 194.617 162.535C178.636 143.357 196.856 127.973 207.017 126.451M197.092 137.218C194.681 138.941 191.926 144.968 194.617 155.301" stroke="#664F3D" stroke-linecap="round"/>
<path d="M264.505 228.14C255.201 230.973 250.201 222.505 250.851 219.037C250.851 217.259 255.403 210.757 261.254 212.536C274.23 216.48 270.356 226.356 264.505 228.14Z" fill="#BEB699"/>
<path d="M250.852 258.697C245.001 252.366 241.749 256.313 240.449 258.697C238.369 264.938 240.45 266.669 245.001 266.669C249.552 266.669 253.453 262.768 250.852 258.697Z" fill="#BEB699"/>
<path d="M220.295 230.74C214.444 225.06 209.459 230.74 209.242 233.341C209.242 239.063 214.01 239.626 216.394 239.193C222.115 237.112 222.974 233.341 220.295 230.74Z" fill="#BEB699"/>
<path d="M238.501 201.485C237.201 195.155 228.1 198.236 228.1 203.436C228.1 208.637 232 209.071 233.95 208.637C238.501 207.626 238.935 204.303 238.501 201.485Z" fill="#BEB699"/>
<path d="M249.55 217.738C248.899 221.206 253.9 229.674 263.203 226.841C269.056 225.058 273.476 212.277 259.953 211.237M239.148 257.397C240.448 255.014 243.699 251.066 249.55 257.397C252.151 261.469 248.25 265.37 243.7 265.37C239.149 265.37 237.068 263.639 239.148 257.397ZM207.941 232.042C208.158 229.441 213.142 223.761 218.994 229.441C221.672 232.042 220.815 235.812 215.093 237.893C212.709 238.326 207.941 237.763 207.941 232.042ZM226.796 202.135C226.796 196.935 235.898 193.854 237.198 200.184C237.632 203.002 237.198 206.325 232.647 207.337C230.696 207.77 226.796 207.336 226.796 202.135Z" stroke="#664F3D" stroke-linecap="round"/>
<path d="M664.685 574.445C657.713 577.812 644.885 591.411 638.942 590.476C627.524 592.224 620.175 592.571 617.929 592.525C616.401 592.668 599.367 593.316 580.292 594.011C570.817 594.357 560.839 594.714 552.006 595.027C547.186 595.198 542.708 595.355 538.838 595.491C531.009 595.766 529.486 601.141 530.647 605.709C531.386 608.616 533.211 611.195 535.189 611.927C536.408 611.469 543.188 610.635 552.635 609.649C571.243 607.707 600.197 605.169 617.365 603.734C632.696 600.869 651.225 602.481 653.568 604.164C661.242 611.145 669.182 612.424 674.173 612.667C702.011 614.561 704.747 597.779 705.66 588.156C697.95 565.578 670.161 570.204 664.685 574.445Z" fill="#D3AE8F"/>
<path d="M618.745 542.991C612.188 553.212 605.93 563.667 603.621 567.617C593.594 574.142 586.656 577.701 584.442 578.667C583.129 579.416 568.775 586.633 552.008 595.027C560.841 594.714 570.82 594.358 580.294 594.011C584.126 591.86 587.692 589.864 590.833 588.11C603.979 578.926 613.912 577.299 617.236 577.634C629.024 579.939 641.986 576.464 646.993 574.438C675.256 563.58 672.179 544.268 667.108 535.97C655.282 521.737 625.916 534.367 618.745 542.991Z" fill="#D3AE8F"/>
<path d="M509.313 616.359C499.937 630.187 509.824 632.192 515.94 631.466C517.483 629.894 534.189 620.162 552.635 609.649C543.188 610.635 536.408 611.469 535.189 611.926C533.211 611.195 531.386 608.616 530.647 605.709C522.741 609.659 515.269 613.389 509.313 616.359Z" fill="#D3AE8F"/>
<path d="M657.213 538.073C652.956 522.213 610.725 540.326 619.554 566.468M695.436 586.616C699.699 578.547 667.084 568.317 656.666 588.058M601.64 565.902C603.95 561.952 610.207 551.497 616.765 541.276C623.935 532.652 643.645 519.174 665.128 534.253C670.198 542.552 673.275 561.864 645.013 572.723C640.005 574.749 627.043 578.224 615.254 575.919C611.932 575.584 601.999 577.211 588.853 586.395C565.006 599.711 516.64 627.022 513.96 629.751C507.845 630.478 497.959 628.473 507.334 614.645C531.347 602.668 579.989 578.362 582.462 576.951C584.676 575.986 591.613 572.427 601.64 565.902ZM636.963 588.761C642.906 589.697 655.735 576.097 662.707 572.729C668.182 568.49 695.972 563.863 703.681 586.442C702.769 596.064 700.033 612.846 672.194 610.952C667.204 610.709 659.264 609.43 651.59 602.449C649.247 600.767 630.718 599.155 615.386 602.019C589.503 604.183 536.83 608.851 533.21 610.212C528.123 608.332 524.05 594.225 536.86 593.776C562.098 592.893 613.249 591.064 615.951 590.811C618.197 590.856 625.546 590.51 636.963 588.761Z" stroke="#664F3D" stroke-linecap="round"/>
<path d="M352.957 580.864L355.01 577.82C408.406 587.433 443.175 622.336 453.884 638.585C445.465 654.575 441.261 655.843 440.212 654.479C435.285 626.733 351.452 586.747 344.604 596.902C343.719 595.918 344.868 593.116 346.686 589.986C331.483 587.266 317.173 603.385 311.917 611.785C309.575 609.416 306.998 599.604 306.004 594.994C313.633 584.816 338.49 582.218 350.936 582.158C344.863 581.717 322.763 575.223 311.788 571.811C300.311 567.217 296.625 562.897 296.217 561.311C292.791 558.213 297.2 546.222 299.833 540.613L311.681 548.603C331.132 553.058 347.302 571.966 352.957 580.864Z" fill="#FDFDFD"/>
<path d="M352.957 580.864L355.01 577.82C408.406 587.433 443.175 622.336 453.884 638.585C445.465 654.575 441.261 655.843 440.212 654.479C435.285 626.733 351.452 586.747 344.604 596.902C343.719 595.918 344.868 593.116 346.686 589.986M352.957 580.864C347.302 571.966 331.132 553.058 311.681 548.603C308.634 546.548 301.999 542.074 299.833 540.613C297.2 546.222 292.791 558.213 296.217 561.311C296.625 562.897 300.311 567.217 311.788 571.811C323.528 575.46 347.998 582.638 351.963 582.159M352.957 580.864C352.647 581.26 352.313 581.695 351.963 582.159M346.686 589.986C331.483 587.266 317.173 603.385 311.917 611.785C309.575 609.416 306.998 599.604 306.004 594.994C313.85 584.528 339.912 582.077 351.963 582.159M346.686 589.986C348.241 587.306 350.286 584.387 351.963 582.159" stroke="#FDFDFD" stroke-width="2" stroke-linecap="round"/>
<path d="M424.133 495.765C381.578 457.221 334.795 515.789 378.22 548.517L356.99 580C410.386 589.613 445.155 624.515 455.864 640.764C459.705 633.899 473.353 616.775 479.698 609.072C544.266 613.217 533.388 541.866 493.887 538.372C504.299 487.879 436.457 477.489 424.133 495.765Z" fill="#FDF4E3"/>
<path d="M345.02 597.745C351.867 587.591 435.7 627.575 440.627 655.322C432.866 666.831 351.627 615.988 345.02 597.745Z" fill="#D3AD8E"/>
<path d="M352.802 579.633L354.856 576.59M352.802 579.633C347.148 570.736 330.977 551.827 311.526 547.371C308.48 545.317 301.845 540.843 299.679 539.383C297.046 544.991 292.637 556.982 296.062 560.08C296.471 561.666 300.157 565.986 311.634 570.58C323.373 574.228 347.844 581.407 351.808 580.929M352.802 579.633C352.492 580.03 352.159 580.464 351.808 580.929M354.856 576.59L376.085 545.106C332.661 512.38 379.444 453.811 421.998 492.355C434.323 474.079 502.165 484.469 491.752 534.962C531.253 538.456 542.131 609.807 477.563 605.661C471.219 613.365 457.571 630.489 453.73 637.353M354.856 576.59C408.252 586.203 443.02 621.104 453.73 637.353M351.808 580.929C339.758 580.846 313.695 583.296 305.85 593.763C306.844 598.373 309.419 608.186 311.763 610.553C317.018 602.154 331.329 586.034 346.531 588.754M351.808 580.929C350.131 583.155 348.086 586.076 346.531 588.754M453.73 637.353C445.311 653.343 441.107 654.612 440.057 653.248M440.057 653.248C435.131 625.501 351.298 585.515 344.45 595.671M440.057 653.248C432.296 664.757 351.057 613.914 344.45 595.671M344.45 595.671C343.565 594.686 344.714 591.885 346.531 588.754M489.313 567.789C484.087 571.158 471.596 577.705 463.447 576.937M400.13 516.021C400.363 521.759 401.216 533.398 402.753 534.039" stroke="#664F3D" stroke-linecap="round"/>
<path d="M49.5235 491.635C42.5585 484.128 34.174 472.176 56.3559 484.425C56.4239 479.698 60.1615 474.396 74.5673 491.014C73.0928 485.845 74.8131 480.506 93.4894 500.5C94.313 499.682 96.8528 499.181 100.424 503.712C103.995 508.242 131.624 524.824 144.992 532.548C145.385 531.693 145.819 530.821 146.295 529.93L122.955 515.384C117.977 515.132 106.26 504.123 101.023 498.649C86.9432 487.359 91.6182 486.211 95.7158 487.048C89.4354 477.324 82.6723 462.967 105.863 483.326C106.7 479.229 109.57 475.901 114.353 495.374C115.59 487.901 119.86 479.765 127.042 507.005C128.637 502.108 132.718 496.271 136.285 512.11C136.997 516.699 140.237 526.26 147.502 527.79C147.073 528.515 146.671 529.228 146.295 529.93C145.819 530.821 145.385 531.693 144.992 532.548C144.555 533.505 144.17 534.44 143.839 535.357L126.447 537.103C115.239 541.695 115.342 537.837 116.795 535.333C105.835 544.416 101.796 541.68 101.146 539.176C91.288 543.073 91.833 539.62 93.3377 537.408C82.5439 543.5 82.7668 538.571 84.2275 535.343C72.4941 537.612 54.7415 539.391 77.5981 528.368C75.9169 526.529 75.5339 523.468 87.4504 525.948C86.0608 523.628 86.5189 520.156 99.469 524.841L143.839 535.357C144.17 534.44 144.555 533.505 144.992 532.548C143.654 532.877 140.213 531.902 135.477 530.085C127.371 528.017 115.81 525.129 103.098 522.105C83.7797 517.51 82.3392 513.48 84.0337 512.04C59.3524 510.237 60.0709 505.635 63.5153 503.56C44.1887 500.934 46.1347 494.516 49.5235 491.635Z" fill="#BBBB9C"/>
<path d="M274.442 602.848C281.471 611.446 274.646 612.016 270.356 611.227C172.151 573.1 132.98 563.206 142.991 535.493C143.322 534.577 143.707 533.641 144.145 532.685C144.537 531.829 144.971 530.957 145.448 530.066C145.824 529.365 146.226 528.652 146.654 527.926C163.113 500.079 265.657 592.101 274.442 602.848Z" fill="#F3A06A"/>
<path d="M146.896 530.325C163.355 502.478 265.899 594.5 274.685 605.246C281.713 613.844 274.888 614.414 270.598 613.625C172.394 575.499 133.222 565.604 143.233 537.891M146.896 530.325C139.632 528.796 136.391 519.234 135.679 514.644C132.112 498.806 128.032 504.643 126.437 509.541C119.255 482.3 114.985 490.437 113.748 497.91C108.965 478.437 106.094 481.764 105.257 485.861C82.0668 465.502 88.8299 479.859 95.1104 489.582C91.0127 488.745 86.3377 489.894 100.418 501.183C105.654 506.657 117.372 517.667 122.35 517.919L145.69 532.465M146.896 530.325C146.468 531.049 146.066 531.762 145.69 532.465M143.233 537.891C143.565 536.976 143.949 536.039 144.387 535.084M143.233 537.891L98.863 527.375C85.9134 522.691 85.4553 526.162 86.8449 528.484C74.9285 526.004 75.3115 529.063 76.9925 530.904C54.136 541.926 71.8886 540.147 83.6219 537.879C82.1613 541.106 81.9384 546.035 92.7322 539.942C91.2274 542.156 90.6826 545.608 100.541 541.711C101.191 544.215 105.23 546.95 116.189 537.868C114.736 540.371 114.633 544.231 125.841 539.638L143.233 537.891ZM145.69 532.465C145.213 533.355 144.779 534.228 144.387 535.084M144.387 535.084C131.019 527.358 103.389 510.778 99.8178 506.247C96.2473 501.716 93.7074 502.218 92.8839 503.034C74.2076 483.041 72.4873 488.38 73.9618 493.548C59.5559 476.931 55.8185 482.232 55.7505 486.96C33.5686 474.711 41.953 486.663 48.918 494.169C45.5291 497.05 43.5832 503.469 62.9098 506.096C59.4654 508.171 58.7468 512.772 83.4283 514.575C81.7337 516.016 83.1742 520.044 102.493 524.64C121.811 529.236 138.471 533.517 144.387 535.084ZM144.387 535.084C138.824 536.45 96.9219 515.304 76.6666 504.56M254.48 593.004L250.697 597.619M231.165 595.657L235.537 588.438M222.696 578.688L227.362 570.168M197.937 580.468L203.478 570.504M192.009 578.851L195.65 573.656M185.593 555.232L190.84 546.57M178.364 553.321L185.359 541.77M155.762 558.873L162.034 546.885" stroke="#664F3D" stroke-linecap="round"/>
<path d="M232.216 516.454C226.842 521.414 227.221 516.11 228.082 512.837C228.936 511.44 230.058 509.864 231.355 508.187C235.259 496.648 243.169 471.401 243.582 462.721C243.238 459.105 244.822 448.358 253.916 434.305C256.671 437.577 261.769 447.221 260.116 459.621C259.354 466.412 257.35 479.393 254.894 482.926C264.008 475.088 277.736 468.8 284.399 466.338C291.839 464.271 304.721 464.788 310.232 465.304C299.485 478.531 285.777 485.971 280.265 487.521C261.252 491.241 241.476 505.949 233.964 512.837C233.219 514.17 232.639 515.387 232.216 516.454Z" fill="#B9C4A2"/>
<path d="M232.216 515.936C226.842 520.896 227.221 515.592 228.082 512.32C228.936 510.922 230.058 509.346 231.355 507.67C234.791 503.95 243.701 497.164 247.726 494.236C240.286 502.09 235.451 509.564 233.964 512.32C233.219 513.653 232.639 514.869 232.216 515.936Z" fill="#FCF5EA"/>
<path d="M292.665 472.021C257.967 482.357 240.191 501.703 233.964 512.837M233.964 512.837C233.219 514.17 232.639 515.387 232.216 516.454C226.842 521.414 227.221 516.11 228.082 512.837C228.936 511.44 230.058 509.864 231.355 508.187M233.964 512.837C241.476 505.949 261.159 489.588 280.265 487.521C285.926 486.909 299.485 478.531 310.232 465.304C304.721 464.788 291.839 464.271 284.399 466.338C277.493 468.89 262.997 475.552 253.916 483.79M231.355 508.187C236.962 500.942 245.823 491.858 250.299 487.521C251.36 486.249 252.579 485.002 253.916 483.79M231.355 508.187C235.259 496.648 243.169 471.401 243.582 462.721C243.238 459.105 244.822 448.358 253.916 434.305C256.671 437.577 261.769 447.221 260.116 459.621C259.255 467.295 256.809 482.871 253.916 483.79M253.916 446.705C252.645 458.826 248.487 484.785 242.032 491.654" stroke="#664F3D" stroke-linecap="round"/>
<path fill-rule="evenodd" clip-rule="evenodd" d="M105.278 261.662C107.345 298.862 79.9622 320.907 66.0123 327.278L65.2525 332.446L63.8849 341.746L53.0957 415.112C55.628 419.091 66.5858 423.132 79.9652 424.93C97.1599 427.24 113.548 425.352 122.331 428.546C145.065 436.813 184.5 432.162 200.861 427.512C198.072 423.328 199.008 379.14 200.197 347.429C200.304 344.558 200.414 341.789 200.523 339.162C200.638 336.409 200.752 333.811 200.861 331.412C173.995 328.519 171.067 286.807 172.961 266.312C172.547 265.943 172.028 265.598 171.414 265.273C169.303 264.156 166.074 263.298 162.114 262.648C150.22 260.695 131.734 260.624 117.162 261.108C114.219 261.205 111.436 261.325 108.898 261.457C107.626 261.523 106.416 261.592 105.278 261.662ZM159.528 281.296C134.728 281.296 120.951 278.196 117.162 276.646C115.612 285.257 112.822 302.169 114.062 300.929C115.302 299.689 144.89 301.446 159.528 302.479V281.296Z" fill="#EBD0C5"/>
<path d="M200.199 347.428C203.176 345.361 210.37 341.848 215.33 344.328C220.29 346.808 220.842 351.733 221.014 354.145C219.8 359.131 215.314 362.376 214.297 369.645C212.717 380.949 215.133 396.341 217.397 399.611C219.98 399.611 225.25 398.268 225.664 392.894C223.08 387.039 219.567 373.158 226.18 364.478C228.592 359.828 230.933 348.255 221.014 339.161C218.032 336.406 209.762 332.548 200.526 339.161C200.416 341.788 200.307 344.557 200.199 347.428Z" fill="#EBD0C5"/>
<path d="M65.2536 332.445C60.168 330.206 46.9029 328.828 41.2165 332.961C39.153 333.995 34.5007 337.611 32.9503 345.878C32.9503 349.495 32.326 355.695 40.1793 363.961C40.6975 368.095 40.2874 377.498 34.5007 382.044C32.6062 384.111 28.8174 388.864 28.8174 391.344C27.7854 394.616 27.1672 401.368 32.9503 402.194C37.2558 397.544 45.8665 387.004 45.8665 382.044C46.5554 380.666 47.7265 375.225 46.8998 364.478C46.0361 361.722 43.4827 354.868 40.1793 349.495C38.6306 346.05 37.9099 338.645 47.4165 336.578C50.1295 336.406 57.2215 337.198 63.886 341.745L65.2536 332.445Z" fill="#EBD0C5"/>
<path d="M109.261 260.648C108.055 252.278 110.294 232.955 115.461 219.52C126.311 196.271 153.074 182.941 169.194 218.487C171.605 225.204 175.497 243.493 171.777 262.92V264.464C169.666 263.348 166.437 262.489 162.477 261.838C167.437 246.938 163.855 227.418 161.444 219.52C155.244 194.306 125.794 202.471 123.727 216.421C122.885 222.105 117.869 246.018 117.524 260.298C114.581 260.397 111.798 260.516 109.261 260.648Z" fill="#D3AD8E"/>
<path d="M101.508 332.154C109.258 336.288 133.438 343.314 168.158 338.354V350.238L167.124 362.121L165.058 368.321C157.824 387.954 106.675 386.921 99.4414 364.704L100.475 351.787L101.508 345.071V332.154Z" fill="#D3AD8E"/>
<path d="M166.763 348.842V336.959C132.043 341.919 107.863 334.892 100.113 330.759V343.676M166.763 348.842C135.763 351.322 109.413 346.432 100.113 343.676M166.763 348.842L165.729 360.726L163.663 366.926C156.429 386.559 105.28 385.525 98.0467 363.309L99.0796 350.392L100.113 343.676M199.165 346.776C197.976 378.486 197.04 422.675 199.829 426.858C183.468 431.508 144.032 436.159 121.299 427.893C112.516 424.699 96.1278 426.587 78.9331 424.276C65.5537 422.478 54.5959 418.438 52.0636 414.459L62.8528 341.092M199.165 346.776C202.142 344.709 209.336 341.196 214.296 343.676C219.256 346.156 219.807 351.082 219.979 353.492C218.766 358.479 214.279 361.724 213.262 368.992C211.682 380.297 214.098 395.688 216.362 398.959C218.946 398.959 224.216 397.615 224.629 392.242C222.046 386.386 218.532 372.506 225.146 363.826C227.557 359.176 229.899 347.602 219.979 338.509C216.998 335.753 208.727 331.896 199.491 338.509M199.165 346.776C199.272 343.905 199.382 341.136 199.491 338.509M62.8528 341.092C56.1883 336.546 49.0963 335.753 46.3833 335.926C36.8767 337.992 37.5974 345.398 39.1461 348.842C42.4495 354.216 45.0029 361.07 45.8666 363.826C46.6933 374.572 45.5222 380.015 44.8333 381.392C44.8333 386.352 36.2226 396.892 31.9171 401.542C26.134 400.715 26.7522 393.965 27.7842 390.692C27.7842 388.212 31.573 383.459 33.4675 381.392C39.2541 376.845 39.6643 367.442 39.1461 363.309C31.2928 355.042 31.9171 348.842 31.9171 345.226C33.4675 336.959 38.1198 333.342 40.1833 332.309C45.8697 328.176 59.1348 329.553 64.2204 331.792M62.8528 341.092L64.2204 331.792M199.491 338.509C199.606 335.755 199.72 333.157 199.829 330.759C172.963 327.866 170.035 286.154 171.929 265.659C171.515 265.29 170.996 264.944 170.382 264.62M170.382 264.62V263.075C174.102 243.649 170.211 225.36 167.799 218.643C151.679 183.097 124.916 196.428 114.066 219.677C108.899 233.111 106.661 252.433 107.866 260.804M170.382 264.62C168.271 263.503 165.042 262.644 161.082 261.994M64.2204 331.792L64.9802 326.625C78.9301 320.253 106.313 298.208 104.246 261.009C105.384 260.938 106.594 260.87 107.866 260.804M107.866 260.804C110.404 260.672 113.187 260.552 116.129 260.455M116.129 260.455C116.476 246.173 121.491 222.261 122.333 216.578C124.399 202.628 153.849 194.462 160.049 219.677C162.461 227.573 166.042 247.094 161.082 261.994M116.129 260.455C130.701 259.971 149.188 260.041 161.082 261.994M59.2999 404.126C60.5055 405.504 63.2265 408.156 64.4665 407.743M68.0832 409.293L74.2831 411.36M78.9331 411.36L86.1664 412.91M90.8164 412.91H97.0163M102.699 414.459H108.899M114.066 414.459C116.305 414.804 120.679 415.7 120.266 416.526M126.466 416.526L133.699 418.593M137.832 418.593L145.066 419.626M149.716 420.66H155.916M161.599 420.66H170.382M173.482 419.626H180.199M184.332 418.593H189.499M193.632 417.56L195.699 416.526M116.129 275.993C119.919 277.543 133.696 280.643 158.496 280.643V301.826C143.858 300.793 114.27 299.036 113.03 300.276C111.79 301.516 114.58 284.604 116.129 275.993Z" stroke="#664F3D" stroke-linecap="round"/>
</svg>
