<svg xmlns="http://www.w3.org/2000/svg" width="240" height="288" fill="none"><g clip-path="url(#a)"><path fill="#BEB699" d="M38.48 100.602c-5.671 1.728-8.719-3.435-8.323-5.548 0-1.084 2.775-5.048 6.342-3.964 7.91 2.405 5.549 8.426 1.981 9.512M30.157 119.23c-3.566-3.86-5.548-1.454-6.34 0-1.269 3.804 0 4.859 2.774 4.859s5.152-2.378 3.566-4.859M11.53 102.188c-3.566-3.463-6.605 0-6.737 1.585 0 3.487 2.906 3.831 4.36 3.567 3.487-1.268 4.01-3.567 2.377-5.152M22.628 84.353c-.793-3.859-6.342-1.981-6.342 1.189s2.378 3.435 3.567 3.17c2.775-.616 3.039-2.642 2.775-4.36"/><path stroke="#664F3D" stroke-linecap="round" d="M29.364 94.26c-.396 2.114 2.652 7.277 8.323 5.55 3.568-1.087 6.262-8.879-1.981-9.513m-12.683 28.139c.793-1.453 2.775-3.859 6.341 0 1.586 2.482-.792 4.86-3.566 4.86s-4.043-1.055-2.775-4.86ZM4 102.98c.132-1.585 3.17-5.049 6.738-1.585 1.632 1.585 1.11 3.883-2.378 5.152-1.454.264-4.36-.08-4.36-3.567Zm11.494-18.231c0-3.17 5.548-5.048 6.34-1.19.265 1.718 0 3.744-2.774 4.36-1.189.265-3.566 0-3.566-3.17Z"/><path fill="#FCF9F6" d="M85.653 178.502c1.585-5.073 3.17-3.964 4.36-4.757V167.8l-3.17-1.981.655-5.97a16.6 16.6 0 0 1-1.845-1.956v-9.911c3.171 6.738 34.878 13.872 48.99 0l.552 9.911-2.378 1.585v6.341c-3.265 3.265-4.235 3.65-4.361 3.36v5.359c.793 1.982 3.567-.793 5.945 3.964l7.53 71.338c-13.87 23.779-68.167 9.908-66.583 0 .317-1.98 6.077-47.823 10.305-71.338"/><path fill="#F8EEE1" d="M108.54 189.746c2.378-1.982 5.549 1.981 2.378 3.17-2.853.317-3.963-1.585-2.378-3.17M124.79 188.557c2.378-1.982 5.548 1.981 2.378 3.17-2.854.317-3.964-1.585-2.378-3.17M91.895 211.147c2.378-1.981 5.548 1.982 2.378 3.171-2.854.317-3.964-1.585-2.378-3.171M109.729 213.525c2.378-1.981 5.549 1.982 2.378 3.171-2.853.317-3.963-1.586-2.378-3.171M126.771 213.129c2.378-1.982 5.549 1.981 2.378 3.17-2.853.318-3.963-1.585-2.378-3.17M128.357 237.701c2.378-1.982 5.548 1.982 2.378 3.171-2.854.317-3.964-1.586-2.378-3.171M109.333 240.079c2.378-1.982 5.549 1.982 2.378 3.171-2.854.317-3.963-1.586-2.378-3.171M89.517 237.305c2.378-1.982 5.548 1.981 2.378 3.17-2.854.317-3.964-1.585-2.378-3.17M93.876 186.575c2.378-1.982 5.549 1.982 2.378 3.171-2.853.317-3.963-1.586-2.378-3.171"/><path fill="#CEB7A9" d="M135.16 143.682c-14.903-17.121-44.389-9.117-48.748 1.189v3.169c3.172 6.737 34.878 13.871 48.99 0z"/><path stroke="#664F3D" stroke-linecap="round" d="M128.456 168.254v5.549c.793 1.981 3.567-.793 5.945 3.963l7.53 71.338c-13.87 23.78-68.167 9.908-66.583 0 .317-1.98 6.077-47.823 10.305-71.338 1.585-5.073 3.17-3.963 4.36-4.756v-5.945m38.443 1.189c-9.644 2.114-30.834 4.835-38.444-1.189m38.444 1.189c-.132.528.556.634 4.361-3.171v-6.341m-42.805 8.323-3.17-1.982.656-5.97m45.319-.371c-4.756 5.547-34.877 8.323-45.32.371m45.32-.371 2.378-1.585-.552-9.91m-47.145 11.866a16.5 16.5 0 0 1-1.845-1.956v-9.91m0 0v-3.169c4.36-10.306 33.845-18.31 48.748-1.189l.242 4.358m-48.99 0c3.171 6.737 34.878 13.871 48.99 0m-38.685-3.169h3.17m4.757-2.776h3.17m3.964-4.36h2.378m.792 8.323h3.171m4.756-3.963h2.378M93.58 186.483c2.378-1.982 5.549 1.982 2.378 3.171-2.853.317-3.963-1.586-2.378-3.171Zm14.664 3.171c2.378-1.982 5.549 1.981 2.378 3.17-2.853.317-3.963-1.585-2.378-3.17Zm16.25-1.189c2.378-1.982 5.548 1.981 2.378 3.17-2.854.317-3.963-1.585-2.378-3.17Zm-32.895 22.59c2.378-1.981 5.548 1.982 2.378 3.171-2.854.317-3.964-1.585-2.378-3.171Zm17.834 2.378c2.378-1.981 5.549 1.982 2.378 3.171-2.853.317-3.963-1.585-2.378-3.171Zm17.042-.396c2.378-1.982 5.549 1.982 2.378 3.17-2.853.318-3.963-1.585-2.378-3.17Zm1.586 24.572c2.378-1.982 5.548 1.982 2.378 3.171-2.854.317-3.964-1.586-2.378-3.171Zm-19.024 2.378c2.378-1.982 5.549 1.982 2.378 3.171-2.854.317-3.963-1.586-2.378-3.171Zm-19.816-2.774c2.378-1.982 5.548 1.981 2.378 3.17-2.854.317-3.964-1.585-2.378-3.17Z"/><path fill="#FCF9F6" d="M133.668 200.695c1.585-5.073 3.929-4.814 5.118-5.607v-4.756l-2.774-1.981-.499-6.309a16.6 16.6 0 0 1-1.845-1.956v-9.91c3.172 6.737 34.013 13.871 48.125 0v9.91l-2.581 3.113v5.548c-2.052 2.052-2.841 2.966-3.112 3.291l.769 3.843c.792 1.981 3.135 1.189 5.513 5.945l6.737 70.207c-13.87 23.78-65.392 9.454-63.808-.454.317-1.98 3.171-47.162 8.357-70.884"/><path fill="#F8EEE1" d="M156.88 210.75c2.378-1.982 5.548 1.982 2.378 3.171-2.854.317-3.963-1.586-2.378-3.171M169.959 204.013c2.378-1.982 5.548 1.981 2.378 3.17-2.854.317-3.964-1.585-2.378-3.17M137.856 236.511c2.378-1.981 5.549 1.982 2.378 3.171-2.853.317-3.963-1.585-2.378-3.171M156.88 237.304c2.378-1.982 5.548 1.982 2.378 3.17-2.854.318-3.963-1.585-2.378-3.17M173.129 237.304c2.378-1.982 5.549 1.982 2.378 3.17-2.853.318-3.963-1.585-2.378-3.17M177.489 269.803c2.378-1.982 5.548 1.981 2.378 3.17-2.854.317-3.963-1.585-2.378-3.17M161.239 269.803c2.378-1.982 5.549 1.981 2.378 3.17-2.853.317-3.963-1.585-2.378-3.17M142.216 268.275c2.378-1.982 5.548 1.982 2.378 3.171-2.854.317-3.964-1.586-2.378-3.171M169.959 259.556c2.378-1.982 5.548 1.981 2.378 3.17-2.854.317-3.964-1.585-2.378-3.17M152.917 259.556c2.378-1.982 5.548 1.981 2.378 3.17-2.854.317-3.964-1.585-2.378-3.17M136.306 256.385c2.378-1.981 5.548 1.982 2.378 3.171-2.854.317-3.964-1.586-2.378-3.171M176.731 248.343c2.378-1.981 5.549 1.982 2.378 3.171-2.853.317-3.963-1.585-2.378-3.171M162.825 246.816c2.378-1.982 5.548 1.981 2.378 3.17-2.854.317-3.964-1.585-2.378-3.17M147.764 246.816c2.378-1.982 5.549 1.981 2.378 3.17-2.853.317-3.963-1.585-2.378-3.17M163.617 226.603c2.378-1.982 5.549 1.982 2.378 3.171-2.853.317-3.963-1.586-2.378-3.171M147.764 226.121c2.378-1.982 5.549 1.981 2.378 3.17-2.853.317-3.963-1.585-2.378-3.17M139.838 216.695c2.378-1.982 5.548 1.982 2.378 3.171-2.854.317-3.964-1.586-2.378-3.171M172.337 216.695c2.378-1.982 5.548 1.982 2.378 3.171-2.854.317-3.964-1.586-2.378-3.171M143.405 204.013c2.378-1.982 5.548 1.981 2.378 3.17-2.854.317-3.964-1.585-2.378-3.17"/><path fill="#F8ECDE" d="M181.324 166.007c-14.902-17.121-43.765-9.456-48.125.85v3.169c3.172 6.737 34.013 13.871 48.125 0z"/><path stroke="#664F3D" stroke-linecap="round" d="m176.076 191.768.792 3.963c.793 1.981 3.136 1.189 5.514 5.945l6.737 70.207c-13.87 23.78-65.392 9.454-63.808-.454.317-1.98 3.171-47.162 8.357-70.884 1.585-5.073 3.929-4.814 5.118-5.607v-4.756m37.29 1.586c-9.644 2.113-29.68 4.439-37.29-1.586m37.29 1.586c-.132.528-.669.634 3.136-3.171v-5.548m-40.426 7.133-2.774-1.981-.499-6.309m43.699 1.157c-4.756 5.546-33.257 6.795-43.699-1.157m43.699 1.157 2.581-3.113v-9.91m-46.28 11.866a16.5 16.5 0 0 1-1.845-1.956v-9.91m0 0v-3.169c4.359-10.306 33.222-17.971 48.125-.85v4.019m-48.125 0c3.171 6.737 34.012 13.871 48.125 0m-35.08-8.777h3.17m-4.359 5.608h3.17m9.943-6.4h2.378m-8.754 3.624h3.171m13.475-2.039h2.378m-5.945 4.815h2.378m-10.27 3.169h2.378m-15.888 34.424c2.378-1.981 5.549 1.982 2.378 3.171-2.853.317-3.963-1.585-2.378-3.171Zm13.475 6.738c2.378-1.982 5.549 1.981 2.378 3.17-2.853.318-3.963-1.585-2.378-3.17Zm13.079-6.738c2.378-1.981 5.549 1.982 2.378 3.171-2.853.317-3.963-1.585-2.378-3.171Zm-32.102 32.499c2.378-1.982 5.548 1.982 2.378 3.171-2.854.317-3.964-1.586-2.378-3.171Zm19.023.793c2.378-1.982 5.549 1.981 2.378 3.17-2.853.317-3.963-1.585-2.378-3.17Zm16.25 0c2.378-1.982 5.548 1.981 2.378 3.17-2.854.317-3.963-1.585-2.378-3.17Zm4.359 32.498c2.378-1.981 5.549 1.982 2.378 3.171-2.853.317-3.963-1.585-2.378-3.171Zm-16.249 0c2.378-1.981 5.549 1.982 2.378 3.171-2.854.317-3.963-1.585-2.378-3.171Zm-19.024-1.527c2.378-1.982 5.549 1.981 2.378 3.17-2.853.317-3.963-1.585-2.378-3.17Zm27.743-8.719c2.378-1.982 5.549 1.981 2.378 3.17-2.853.317-3.963-1.585-2.378-3.17Zm-17.042 0c2.378-1.982 5.549 1.981 2.378 3.17-2.853.317-3.963-1.585-2.378-3.17Zm-16.611-3.171c2.378-1.982 5.549 1.982 2.378 3.171-2.853.317-3.963-1.586-2.378-3.171Zm40.426-8.042c2.378-1.982 5.548 1.982 2.378 3.171-2.854.317-3.964-1.586-2.378-3.171Zm-13.907-1.528c2.378-1.981 5.549 1.982 2.378 3.171-2.853.317-3.963-1.585-2.378-3.171Zm-15.06 0c2.378-1.981 5.549 1.982 2.378 3.171-2.854.317-3.963-1.585-2.378-3.171Zm15.853-20.212c2.378-1.982 5.549 1.982 2.378 3.17-2.854.318-3.963-1.585-2.378-3.17Zm-15.853-.482c2.378-1.982 5.549 1.981 2.378 3.17-2.854.317-3.963-1.585-2.378-3.17Zm-7.927-9.426c2.378-1.982 5.549 1.981 2.378 3.17-2.853.317-3.963-1.585-2.378-3.17Zm32.499 0c2.378-1.982 5.549 1.981 2.378 3.17-2.853.317-3.963-1.585-2.378-3.17Z"/><path fill="#E9CFB5" d="M33.587 212.943c-1.585 6.341-7.53 7.927-10.304 7.927l-6.738-12.287c-3.487 2.219-1.981 5.681-.792 7.134-6.658 1.902-9.38-2.114-9.908-4.36-2.537-15.219 14.267-21.401 20.608-19.42 8.878 1.586 7.927 10.701 4.36 13.872l-2.378-2.774c-3.567-2.379-4.36.792-3.17 2.378z"/><path fill="#705A4F" d="M5.036 152.897c-.126.286.318.48.444.194.125-.287-.319-.481-.444-.194M15.768 143.385c-.125.286.319.481.444.194.125-.286-.319-.481-.444-.194M10.403 141.006c-.125.286.319.481.444.194.125-.286-.319-.48-.444-.194M16.255 140.215c-.126.286.318.481.444.194.125-.286-.32-.48-.445-.194M17.717 142.594c-.125.286.32.481.444.194.126-.286-.318-.481-.444-.194M7.965 152.897c-.125.286.32.48.444.194.126-.287-.318-.481-.444-.194M6.01 156.86c-.125.286.319.48.444.194.126-.287-.318-.481-.444-.194"/><path stroke="#664F3D" stroke-linecap="round" d="M32.002 212.943c-1.586 6.341-7.53 7.927-10.305 7.927l-6.737-12.287c-3.488 2.219-1.982 5.681-.793 7.134-6.658 1.902-9.38-2.114-9.908-4.36-2.537-15.219 14.267-21.401 20.609-19.42 8.877 1.586 7.926 10.701 4.36 13.872l-2.379-2.774c-3.567-2.379-4.36.792-3.17 2.378z"/><path fill="#C0BAA2" d="M66.206 15.252c.03 1.67.573 5.43 2.508 7.1-8.787-3.06-22.219-6.02-5.647 6.62l23.086 8.236a190 190 0 0 0-2.193-3.428q0-.583-.002-1.148c-.105-19.572-3.752-24.58-5.597-24.616-3.41 5.576.021 16.105 2.163 20.673-5.883-8.437-12.832-16.93-14.318-13.437M99.248 51.077c-6.965-6.325-19.234-14.473-30.11-12.06 2.11 3.597 11.088 11.046 30.11 12.06M95.777 21.618c-3.428 4.574 2.979 23.607 6.611 32.552q.735.904 1.473 1.828c-.762-1.674-.922-7.12-.711-7.561.02-.041.035-.162.045-.35.417-2.04 3.552-7.352 5.162-9.897 6.371-15.28-2.224-12.244-5.431-2.284-1.111-11.713-5.23-14.405-7.15-14.288M113.881 69.292c-13.18-11.608-35.133-18.54-39.33-14.955 2.236 3.554 11.175 10.932 29.044 12.017 2.064.289 7.01 1.281 10.286 2.938M116.325 70.263c-4.172-14.667 3.152-22.41 7.335-24.449 7.676 8.638-7.388 20.685-6.127 28.646zM106.252 80.967c5.276-2.2 16.403 4.714 21.307 8.445q.446.69.883 1.37c-17.32-1.952-22.01-7.356-22.19-9.815M130.406 57.723c-1.972 4.76-4.272 17.734 2.304 31.551 2.076-8.02 4.521-25.556-2.304-31.551"/><path fill="#DDCBBB" d="M112.805 43.983c-.919.325-3.241-3.478.627-3.584 2.619-.072 2.143 4.287-.627 3.584M93.312 68.524c-.918.324-3.24-3.479.628-3.585 2.619-.071 2.142 4.287-.628 3.585M109.078 53.707c-.918.324-3.241-3.48.627-3.585 2.159-.059 2.215 2.891.617 3.537-.341.138-.757.171-1.244.047"/><path fill="#DDCBBB" d="M112.805 43.983c-.919.325-3.241-3.478.627-3.584 2.619-.072 2.143 4.287-.627 3.584M111.041 76.13c-.918.325-3.24-3.478.628-3.584 2.619-.071 2.143 4.287-.628 3.585M94.878 54.52c-.918.324-3.241-3.479.627-3.584 1.701-.047 2.097 1.775 1.406 2.866-.373.589-1.062.964-2.033.718M89.507 34.56c-.918.325-3.24-3.479.628-3.584 2.619-.072 2.143 4.287-.628 3.584M122.706 72.01c-.923-.514-3.562-2.945.628-3.584 2.59-.396 2.143 4.287-.628 3.584"/><path stroke="#664F3D" stroke-linecap="round" d="M139.925 107.321a431 431 0 0 0-4.569-7.632M86.371 35.45l-23.086-8.236c-16.571-12.64-3.14-9.68 5.648-6.62M86.371 35.45c-.406-.65-.843-1.34-1.306-2.06m1.306 2.06c2.075 1.647 4.27 3.671 6.544 5.99M68.933 20.595c-1.935-1.67-2.479-5.43-2.508-7.1 1.486-3.494 8.435 5 14.318 13.436m-11.81-6.336c2.42 2.087 13.454 8.697 14.572 10.404m0 0a205 205 0 0 0-2.762-4.068m2.762 4.068q.343.518.674 1.023m-13.794-7.317 14.68 8.685m0 0q-.43-.67-.886-1.368m-3.436-5.091C78.6 22.363 75.17 11.834 78.58 6.258c1.845.035 5.491 5.045 5.597 24.616m.001 1.148q.001-.582-.001-1.148m18.43 21.539a51 51 0 0 0-3.14-3.094m3.14 3.093c-3.632-8.944-10.04-27.978-6.611-32.551 1.92-.118 6.037 2.574 7.149 14.287m-.538 18.265q.735.903 1.473 1.828m-1.473-1.828c-3.311-4.069-6.576-7.797-9.692-10.973m6.551 7.879c-6.965-6.324-19.233-14.473-30.11-12.06 2.111 3.597 11.088 11.046 30.11 12.06Zm0 0c-2.512-2.475-12.794-6.129-17.621-7.646m21.3-7.525c.155 4.008.417 12.126.224 12.531m-.224-12.53c3.207-9.96 11.801-12.997 5.431 2.284-1.713 2.706-5.152 8.545-5.207 10.246m0 0c-.211.442-.051 5.887.711 7.562m-.711-7.562c-.317-.897 1.961-9.52 3.139-13.72m-2.059 21.745c-.136-.058-.259-.221-.369-.463m.369.463-.369-.463m.369.463a290 290 0 0 1 3.213 4.126m-9.004-30.242c1.339 7.958 4.297 24.23 5.422 25.653m10.019 13.293c-13.18-11.608-35.132-18.539-39.33-14.954 2.236 3.553 11.176 10.931 29.045 12.016 2.064.29 7.01 1.282 10.285 2.938Zm0 0c-.989-2.8-20.065-8.412-29.48-10.868m29.48 10.868a359 359 0 0 0-6.437-8.704m6.437 8.704q1.47 2.049 2.916 4.114m.737 1.054-1.208-4.197c-4.173-14.666 3.152-22.41 7.335-24.449 7.675 8.638-7.388 20.685-6.127 28.646Zm0 0a537 537 0 0 1 10.026 14.953m-10.026-14.953c-.366-.075-.604-.45-.737-1.054m.737 1.054-.737-1.054M120.4 52.01c-1.601 5.676-4.127 16.255-3.385 19.637m10.763 16.007c-4.904-3.732-16.032-10.645-21.307-8.445.18 2.458 4.87 7.863 22.19 9.814m-.883-1.37.883 1.37m0 0a566 566 0 0 1 6.695 10.665m-6.695-10.665-4.891-16.767m9.158 15.26c-6.575-13.818-4.276-26.792-2.304-31.552 6.826 5.995 4.38 23.532 2.304 31.551Zm0 0a10 10 0 0 1-.166-.516m-.882-23.914c-.347 5.944-.633 18.744.882 23.914m0 0c.027 2.844.582 9.364 2.594 12.688M123.77 72.257c-.918.325-3.562-2.945.628-3.584 2.59-.395 2.143 4.287-.628 3.584Zm-33.198-37.45c-.919.325-3.241-3.479.627-3.584 2.62-.072 2.143 4.287-.627 3.584Zm0 0c-.012 1.755.441 5.539 2.343 6.633M80.75 14.738c.42 4.69 1.694 14.483 3.425 16.136m13.8 23.175c.69-1.09.294-2.913-1.407-2.866-3.868.105-1.545 3.909-.627 3.584.971.247 1.66-.13 2.033-.718Zm0 0c2.144.508 7.084 2.175 9.686 4.781m3.725-4.924c1.597-.646 1.541-3.596-.617-3.537-3.869.106-1.546 3.909-.628 3.585.487.123.904.09 1.245-.048Zm0 0 5.628 17.742m-3.146-27.418c-.918.325-3.241-3.478.627-3.584 2.619-.071 2.143 4.287-.627 3.584ZM94.376 68.77c-.918.325-3.24-3.478.628-3.583 2.619-.072 2.143 4.287-.628 3.584Zm17.73 7.608c-.919.324-3.241-3.479.627-3.585 2.619-.071 2.143 4.287-.627 3.585Z"/><path fill="#A9A687" d="M193.867 72.386c-20.3 12.467-14.802 29.191-9.516 35.994 10.371 15.225 27.582 11.492 34.891 7.723 6.399-2.317 12.687-11.938 12.687-17.79 0-9.594-.092-11.676 1.793-17.377 7.612-17.1-1.977-25.257-7.723-27.198-4.662-2.36-10.935.495-14.756 3.34-6.73 8.054-14.388 13.561-17.376 15.308"/><path fill="#BCC09F" d="M193.867 72.386c-20.3 12.467-14.802 29.191-9.516 35.994 9.792 10.619 20.824 7.447 26.892 5.24s17.305-14.144 14.756-20.272c-2.978-7.158 2.804-17.56 5.93-27.03 1.793-5.43-2.909-11.05-5.93-12.58-4.662-2.36-10.935.495-14.756 3.34-6.73 8.054-14.388 13.561-17.376 15.308"/><path fill="#D7D1B5" d="M194.568 73.092c-18.955 11.684-13.821 27.357-8.885 33.734 9.143 9.952 19.445 6.979 25.111 4.911s16.159-13.256 13.779-19c-2.78-6.708 2.619-16.457 5.537-25.332 1.675-5.09-2.716-10.357-5.537-11.79-4.353-2.212-10.21.464-13.779 3.13-6.284 7.549-13.435 12.71-16.226 14.347"/><path fill="#EBA77C" d="M206.486 79.074c-17.585 0-17.999 18.831-11.86 22.479 7.613 4.523 14.297-.092 16.411-2.62 7.928-12.352.075-20.18-4.551-19.859"/><path fill="#EFDCC9" d="M197.621 84.282c-1.793 1.077-2.62 4.275-1.103 5.24.753 1.38 7.17-3.309 5.93-6.067-.56-1.246-3.449 0-4.827.827"/><path stroke="#664F3D" stroke-linejoin="round" stroke-width="2" d="M184.078 108.38c-5.287-6.803-10.785-23.527 9.515-35.994 2.988-1.746 10.647-7.254 17.377-15.307 3.821-2.846 10.093-5.7 14.756-3.34m-41.648 54.641c9.791 10.619 20.824 7.447 26.892 5.24s17.305-14.144 14.756-20.272c-2.978-7.158 2.804-17.56 5.93-27.03 1.793-5.43-2.909-11.05-5.93-12.58m-41.648 54.642c10.37 15.225 27.581 11.492 34.89 7.723 6.399-2.317 12.688-11.938 12.688-17.79 0-9.594-.092-11.676 1.793-17.377 7.612-17.1-1.977-25.257-7.723-27.198m-32.133 47.195c-6.139-3.648-5.725-22.479 11.86-22.479 4.626-.322 12.479 7.507 4.551 19.859-2.114 2.528-8.798 7.143-16.411 2.62Z"/></g><defs><clipPath id="a"><path fill="#fff" d="M0 0h240v288H0z"/></clipPath></defs></svg>