<svg xmlns="http://www.w3.org/2000/svg" width="240" height="186" fill="none"><g clip-path="url(#a)"><path fill="#B9C4A2" d="M189.039 140.399c-3.097 2.859-2.878-.198-2.382-2.084.492-.806 1.139-1.715 1.886-2.68 2.25-6.651 6.809-21.202 7.047-26.205-.198-2.084.715-8.278 5.956-16.377 1.588 1.886 4.526 7.444 3.573 14.591-.439 3.914-1.594 11.395-3.009 13.431 5.253-4.517 13.165-8.141 17.005-9.56 4.288-1.191 11.712-.893 14.888-.596-6.193 7.623-14.094 11.911-17.271 12.805-10.958 2.144-22.356 10.62-26.685 14.591-.43.768-.764 1.469-1.008 2.084"/><path fill="#FCF5EA" d="M189.039 140.102c-3.097 2.859-2.878-.198-2.382-2.084.492-.805 1.139-1.714 1.886-2.68 1.981-2.144 7.116-6.055 9.435-7.742-4.288 4.526-7.074 8.834-7.931 10.422-.43.768-.764 1.469-1.008 2.084"/><path stroke="#664F3D" stroke-linecap="round" d="M223.879 114.791c-19.998 5.956-30.243 17.107-33.832 23.524m0 0c-.43.768-.764 1.469-1.008 2.084-3.097 2.859-2.878-.198-2.382-2.084.492-.806 1.139-1.715 1.886-2.68m1.504 2.68c4.329-3.971 15.674-13.4 26.685-14.591 3.263-.353 11.078-5.182 17.271-12.805-3.176-.297-10.6-.595-14.888.596-3.981 1.471-12.335 5.31-17.569 10.058m-13.003 14.062c3.231-4.176 8.339-9.412 10.918-11.911a22 22 0 0 1 2.085-2.151m-13.003 14.062c2.25-6.651 6.809-21.202 7.047-26.205-.198-2.084.715-8.278 5.956-16.377 1.588 1.886 4.526 7.444 3.573 14.591-.496 4.422-1.906 13.4-3.573 13.929m0-21.374c-.733 6.986-3.129 21.947-6.849 25.907"/><path fill="#BEB699" d="M206.967 35.595c-5.544 1.688-8.523-3.358-8.136-5.424 0-1.06 2.713-4.934 6.199-3.874 7.733 2.35 5.424 8.235 1.937 9.298M198.831 53.803c-3.486-3.772-5.424-1.42-6.198 0-1.24 3.72 0 4.751 2.712 4.751s5.036-2.325 3.486-4.75M180.623 37.144c-3.487-3.385-6.457 0-6.586 1.55 0 3.41 2.841 3.745 4.262 3.487 3.409-1.24 3.92-3.487 2.324-5.037M191.471 19.71c-.775-3.772-6.199-1.936-6.199 1.163s2.325 3.357 3.487 3.1c2.712-.603 2.97-2.584 2.712-4.262"/><path stroke="#664F3D" stroke-linecap="round" d="M198.056 29.395c-.388 2.067 2.592 7.113 8.135 5.424 3.488-1.062 6.122-8.678-1.936-9.298m-12.398 27.507c.775-1.42 2.712-3.773 6.199 0 1.55 2.426-.775 4.75-3.486 4.75s-3.952-1.03-2.713-4.75Zm-18.595-15.11c.129-1.55 3.099-4.934 6.586-1.55 1.596 1.55 1.085 3.798-2.325 5.037-1.42.259-4.261-.077-4.261-3.486Zm11.235-17.82c0-3.1 5.424-4.935 6.198-1.163.259 1.679 0 3.66-2.712 4.262-1.162.258-3.486 0-3.486-3.1Z"/><path fill="#F7F1E4" d="M64.038 130.162c-16.73-7.566-38.5-27.337-47.293-36.277 5.868-10.233 19.21-34.297 25.642-48.687C50.483 30.256 71.989 2.174 93.238 9.385 102.24 11.02 119 19.938 114.037 42.509c-1.909 7.175-7.345 22.716-13.82 27.486-1.577 1.853-4.622 6.367-4.18 9.6 5.89-2.977 19.215-7.158 25.396-.06l.521.752c1.866 2.768 2.64 10.606-9.471 16.992-6.233 3.861-20.007 12.338-25.237 15.361-8.036 3.705-23.927 12.397-23.208 17.522"/><path fill="#E7977F" d="M63.484 130.119c-16.73-7.567-38.499-27.338-47.293-36.278-4.756 1.981-4.49 4.649-6.53 8.65s41.686 39.006 45.897 37.854c3.368-.921 6.688-7.201 7.926-10.226"/><path stroke="#664F3D" stroke-linecap="round" stroke-width="2" d="M15.866 92.047c8.794 8.939 30.563 28.71 47.293 36.277M15.866 92.047c-4.757 1.98-4.49 4.648-6.531 8.65-2.04 4.001 41.686 39.006 45.897 37.854 3.37-.922 6.688-7.202 7.927-10.227M15.866 92.047c5.868-10.234 19.21-34.298 25.642-48.687C49.604 28.417 71.11.334 92.359 7.545c9.001 1.637 25.762 10.554 20.799 33.125-1.909 7.175-7.344 22.716-13.82 27.486-1.577 1.853-4.621 6.366-4.18 9.6 5.89-2.978 19.215-7.159 25.396-.06l.589 1.454c1.867 2.77 2.572 9.903-9.539 16.29-6.233 3.86-20.007 12.337-25.237 15.36-8.035 3.706-23.927 12.398-23.208 17.523m32.878-111.36 7.576 35.126M66.149 21.673l30.855-8.347M30.35 76.746l69.809-17.784M27.396 80.506l3.057 15.42m3.783-3.213 56.63-13.5M48.27 108.456l21.824-6.205m33.305-8.994-13.782 3.8m-49.003-39.33 8.474 57.439m3.168-76.74 3.452 19.746m10.354 59.237L59.16 77.919m9.279-35.187 9.244 51.151m16.024-10.67 3.888 15.967m9.999-21.686 2.486 12.672m-23.4-6.225 23.649-5.72M43.671 57.245l23.444-5.885 11.722-2.942 11.722-2.942 16.038-4.602m-26.455-8.985 28.645-5.365M79.627 12.6l5.687 25.467m5.559 30.111-2.78-15.055m-31.58-18.307 11.54-4.196"/><path fill="#BBC8C3" d="M94.444 169.581c-20.61-9.331-47.42-33.728-58.25-44.761-5.862 2.45-5.536 5.743-8.053 10.686s51.338 48.134 56.528 46.708c4.151-1.14 8.246-8.897 9.775-12.633"/><path fill="#B8D2C7" d="M67.71 63.548c-7.935 17.774-24.394 47.498-31.632 60.138 11.679 12.862 39.679 39.82 58.249 44.76-.883-6.328 18.706-17.072 28.611-21.654 6.446-3.737 23.424-14.214 31.108-18.985 14.929-7.895 14.065-16.704 11.767-20.122l-.725-1.796c-7.612-8.76-24.034-3.588-31.294.094-.542-3.993 3.213-9.569 5.158-11.858 7.983-5.894 14.692-25.089 17.049-33.95 6.133-27.874-14.514-38.872-25.604-40.886-26.179-8.889-52.699 25.803-62.686 44.26"/><path stroke="#664F3D" stroke-linecap="round" stroke-width="2" d="M34.023 123.94c10.83 11.032 37.64 35.429 58.249 44.76m-58.249-44.76c-5.863 2.449-5.537 5.743-8.054 10.686s51.338 48.133 56.528 46.708c4.152-1.141 8.246-8.898 9.775-12.634m-58.249-44.76c7.238-12.641 23.697-42.364 31.632-60.138 9.988-18.456 36.508-53.148 62.687-44.26 11.09 2.015 31.737 13.013 25.604 40.887-2.357 8.861-9.066 28.056-17.049 33.95-1.945 2.29-5.7 7.865-5.158 11.857 7.26-3.681 23.682-8.853 31.294-.093l.725 1.796c2.298 3.418 3.162 12.226-11.767 20.121-7.684 4.772-24.662 15.249-31.108 18.986-9.905 4.582-29.494 15.326-28.611 21.654m40.594-137.531 9.31 43.367m-46.14-37.53 38.025-10.33M51.88 105.037l86.034-22.013m-89.675 26.657 3.755 19.039m4.664-3.971 69.791-16.713m-52.51 36.143 67.943-18.808M64.543 81.546l10.4 70.918m3.96-94.76 16.954 97.517M95.14 40.375l21.251 105.476m13.556-32.875 4.778 19.712m12.337-26.785 3.054 15.645m-28.828-7.669 29.144-7.08m-82.12-25.854 77.55-20.261M82.647 58.7l65.923-15.738m-35.921-17.172 13.817 68.62"/></g><defs><clipPath id="a"><path fill="#fff" d="M0 0h240v186H0z"/></clipPath></defs></svg>